<svg width="26" height="26" viewBox="0 0 26 26" fill="none" xmlns="http://www.w3.org/2000/svg">
<path d="M25.5066 8.10995L13.6238 0.188051C13.2182 -0.0615398 12.7854 -0.0638249 12.3761 0.188051L0.493288 8.10995C0.188601 8.31303 0 8.67581 0 9.03849V16.9603C0 17.3231 0.188601 17.6858 0.493339 17.8889L12.3761 25.8119C12.7817 26.0615 13.2146 26.0638 13.6239 25.8119L25.5067 17.8889C25.8113 17.6859 26 17.3231 26 16.9603V9.03849C25.9999 8.67581 25.8113 8.31303 25.5066 8.10995ZM14.1172 3.20584L22.866 9.03849L18.9632 11.6501L14.1172 8.41459V3.20584ZM11.8828 3.20584V8.41459L7.0368 11.6501L3.13391 9.03849L11.8828 3.20584ZM2.23437 11.1278L5.0346 12.9994L2.23437 14.8711V11.1278ZM11.8828 22.793L3.13391 16.9604L7.0368 14.3488L11.8828 17.5843V22.793ZM13 15.6401L9.05352 12.9994L13 10.3588L16.9464 12.9994L13 15.6401ZM14.1172 22.793V17.5843L18.9632 14.3488L22.866 16.9604L14.1172 22.793ZM23.7656 14.8711L20.9654 12.9994L23.7656 11.1278V14.8711Z" fill="black"/>
</svg>
