<svg width="24" height="23" viewBox="0 0 24 23" fill="none" xmlns="http://www.w3.org/2000/svg">
<path d="M8.02742 18.5196C8.02742 18.6147 7.91613 18.6908 7.77581 18.6908C7.61613 18.705 7.50484 18.629 7.50484 18.5196C7.50484 18.4244 7.61613 18.3484 7.75645 18.3484C7.90161 18.3341 8.02742 18.4102 8.02742 18.5196ZM6.52258 18.3055C6.48871 18.4007 6.58548 18.5101 6.73065 18.5386C6.85645 18.5861 7.00161 18.5386 7.03064 18.4435C7.05968 18.3484 6.96774 18.239 6.82258 18.1962C6.69677 18.1629 6.55645 18.2104 6.52258 18.3055ZM8.66129 18.2247C8.52097 18.258 8.42419 18.3484 8.43871 18.4577C8.45323 18.5529 8.57903 18.6147 8.72419 18.5814C8.86452 18.5481 8.96129 18.4577 8.94677 18.3626C8.93226 18.2723 8.80161 18.2104 8.66129 18.2247ZM11.8452 0C5.13387 0 0 5.00799 0 11.6045C0 16.8788 3.37742 21.3921 8.20161 22.9806C8.82097 23.09 9.03871 22.7143 9.03871 22.4052C9.03871 22.1103 9.02419 20.4838 9.02419 19.485C9.02419 19.485 5.6371 20.1984 4.92581 18.0678C4.92581 18.0678 4.37419 16.6838 3.58065 16.3271C3.58065 16.3271 2.47258 15.5804 3.65806 15.5947C3.65806 15.5947 4.8629 15.6898 5.52581 16.8217C6.58548 18.6575 8.36129 18.1296 9.05323 17.8157C9.16452 17.0547 9.47903 16.5268 9.82742 16.2129C7.12258 15.9181 4.39355 15.5328 4.39355 10.9576C4.39355 9.64977 4.76129 8.99345 5.53548 8.15641C5.40968 7.84727 4.99839 6.57269 5.66129 4.92714C6.67258 4.618 9 6.21124 9 6.21124C9.96774 5.9449 11.0081 5.80698 12.0387 5.80698C13.0694 5.80698 14.1097 5.9449 15.0774 6.21124C15.0774 6.21124 17.4048 4.61325 18.4161 4.92714C19.079 6.57744 18.6677 7.84727 18.5419 8.15641C19.3161 8.99821 19.7903 9.65452 19.7903 10.9576C19.7903 15.5471 16.9403 15.9133 14.2355 16.2129C14.6806 16.5887 15.0581 17.302 15.0581 18.4197C15.0581 20.0224 15.0435 22.0057 15.0435 22.3956C15.0435 22.7048 15.2661 23.0805 15.8806 22.9711C20.7194 21.3921 24 16.8788 24 11.6045C24 5.00799 18.5565 0 11.8452 0ZM4.70323 16.4032C4.64032 16.4507 4.65484 16.5601 4.7371 16.6505C4.81452 16.7266 4.92581 16.7599 4.98871 16.698C5.05161 16.6505 5.0371 16.5411 4.95484 16.4507C4.87742 16.3746 4.76613 16.3414 4.70323 16.4032ZM4.18064 16.018C4.14677 16.0798 4.19516 16.1559 4.29194 16.2034C4.36935 16.251 4.46613 16.2367 4.5 16.1701C4.53387 16.1083 4.48548 16.0322 4.38871 15.9847C4.29194 15.9561 4.21452 15.9704 4.18064 16.018ZM5.74839 17.7111C5.67097 17.7729 5.7 17.9156 5.81129 18.0059C5.92258 18.1153 6.0629 18.1296 6.12581 18.0535C6.18871 17.9917 6.15968 17.849 6.0629 17.7586C5.95645 17.6492 5.81129 17.635 5.74839 17.7111ZM5.19677 17.0119C5.11935 17.0595 5.11935 17.1832 5.19677 17.2925C5.27419 17.4019 5.40484 17.4495 5.46774 17.4019C5.54516 17.3401 5.54516 17.2164 5.46774 17.1071C5.4 16.9977 5.27419 16.9501 5.19677 17.0119Z" fill="black"/>
</svg>
