<svg width="478" height="603" viewBox="0 0 478 603" fill="none" xmlns="http://www.w3.org/2000/svg">
<g style="mix-blend-mode:overlay" opacity="0.7">
<mask id="path-1-inside-1_6_89" fill="white">
<path d="M592 301.5C592 468.014 459.476 603 296 603C132.524 603 0 468.014 0 301.5C0 134.986 132.524 0 296 0C459.476 0 592 134.986 592 301.5ZM81.8578 301.5C81.8578 421.965 177.733 519.621 296 519.621C414.267 519.621 510.142 421.965 510.142 301.5C510.142 181.035 414.267 83.3788 296 83.3788C177.733 83.3788 81.8578 181.035 81.8578 301.5Z"/>
</mask>
<path d="M592 301.5C592 468.014 459.476 603 296 603C132.524 603 0 468.014 0 301.5C0 134.986 132.524 0 296 0C459.476 0 592 134.986 592 301.5ZM81.8578 301.5C81.8578 421.965 177.733 519.621 296 519.621C414.267 519.621 510.142 421.965 510.142 301.5C510.142 181.035 414.267 83.3788 296 83.3788C177.733 83.3788 81.8578 181.035 81.8578 301.5Z" fill="#91A4AE"/>
<path d="M592 301.5C592 468.014 459.476 603 296 603C132.524 603 0 468.014 0 301.5C0 134.986 132.524 0 296 0C459.476 0 592 134.986 592 301.5ZM81.8578 301.5C81.8578 421.965 177.733 519.621 296 519.621C414.267 519.621 510.142 421.965 510.142 301.5C510.142 181.035 414.267 83.3788 296 83.3788C177.733 83.3788 81.8578 181.035 81.8578 301.5Z" stroke="black" stroke-width="2" mask="url(#path-1-inside-1_6_89)"/>
</g>
</svg>
