<svg width="620" height="744" viewBox="0 0 620 744" fill="none" xmlns="http://www.w3.org/2000/svg">
<g style="mix-blend-mode:overlay" opacity="0.7">
<mask id="path-1-inside-1_2_14" fill="white">
<path d="M620 322C620 555.064 427.035 744 189 744C-49.0347 744 -242 555.064 -242 322C-242 88.9358 -49.0347 -100 189 -100C427.035 -100 620 88.9358 620 322ZM-165.724 322C-165.724 513.818 -6.90852 669.317 189 669.317C384.909 669.317 543.724 513.818 543.724 322C543.724 130.182 384.909 -25.3166 189 -25.3166C-6.90852 -25.3166 -165.724 130.182 -165.724 322Z"/>
</mask>
<path d="M620 322C620 555.064 427.035 744 189 744C-49.0347 744 -242 555.064 -242 322C-242 88.9358 -49.0347 -100 189 -100C427.035 -100 620 88.9358 620 322ZM-165.724 322C-165.724 513.818 -6.90852 669.317 189 669.317C384.909 669.317 543.724 513.818 543.724 322C543.724 130.182 384.909 -25.3166 189 -25.3166C-6.90852 -25.3166 -165.724 130.182 -165.724 322Z" fill="#91A4AE"/>
<path d="M620 322C620 555.064 427.035 744 189 744C-49.0347 744 -242 555.064 -242 322C-242 88.9358 -49.0347 -100 189 -100C427.035 -100 620 88.9358 620 322ZM-165.724 322C-165.724 513.818 -6.90852 669.317 189 669.317C384.909 669.317 543.724 513.818 543.724 322C543.724 130.182 384.909 -25.3166 189 -25.3166C-6.90852 -25.3166 -165.724 130.182 -165.724 322Z" stroke="black" stroke-width="2" mask="url(#path-1-inside-1_2_14)"/>
</g>
</svg>
