<svg width="680" height="530" viewBox="0 0 680 530" fill="none" xmlns="http://www.w3.org/2000/svg">
<g filter="url(#filter0_d_2_379)">
<path opacity="0.15" d="M4.79998 155.8C8.49998 206.9 44.9 252.4 91.2 274.1C120.9 288 153.8 293.2 185.2 302.8C216.6 312.4 248.2 328 265.6 355.8C277.7 375.2 281.8 398.9 294.8 417.7C312.7 443.6 344.5 456.2 375.5 462C443.5 474.6 516.2 459.9 574 421.9C629.8 385.3 672.2 324.5 675.2 257.9C676.8 222.9 667.7 187.8 651.5 156.7C630.6 116.5 594.8 81 550.1 74.3C493.4 65.8 437.1 104.7 380.6 94.9001C348.4 89.3001 321.3 68.8001 293 52.5001C270 39.2001 245.6 28.5001 221 18.6001C171.1 -1.49993 111.6 -13.2999 67.3 26.3001C33.5 56.5001 1.49998 110.1 4.79998 155.8Z" fill="#CDBFDE"/>
<path d="M461.2 420.5C461.2 420.5 473 429.6 476.5 438.7C480 447.8 480.2 446.5 480.2 446.5C480.2 446.5 484.3 455.5 484.1 446.6C483.9 437.7 482.1 436 482.1 436C482.1 436 489.7 445.3 491.9 452.4C494.1 459.5 494.7 463.7 496.5 462.4C498.2 461.1 491.3 440.5 490.4 437.9C489.5 435.3 499.8 458.7 500.4 460.4C501.1 462.1 504.1 467.3 502.6 459.3C501.1 451.3 493.7 434.6 493.7 434.6L504.2 456.6C504.2 456.6 506.5 461.7 506.4 455.7C506.3 449.8 497.5 432.5 497.5 432.5L506.4 447.1C506.4 447.1 510.3 451.9 508.6 445.4C506.9 438.9 501.9 426.6 499 424.2C496.1 421.7 479.5 411.4 476.9 408.9C474.3 406.4 461.2 420.5 461.2 420.5Z" fill="white" stroke="black" stroke-miterlimit="10" stroke-linecap="round" stroke-linejoin="round"/>
<path d="M275.2 187C275.2 187 213 209.9 210.1 215.4C207.2 220.9 190.4 246.7 189.7 283C189.7 283 183 294 183.6 298.2C184.2 302.4 227.3 335.8 229.4 342.5C231.5 349.3 242.9 372.8 246.5 432.4C247.4 447 380.6 442 376.5 425.6C373 411.6 374.1 308.2 377.2 303.6C380.3 298.9 408.3 353.4 421.2 382.5C434 411.6 438 401.2 442.9 409.5C447.8 417.8 454 429.2 458.4 429.2C462.8 429.2 477 411 481.8 406.3C486.7 401.6 471.6 385.5 469 382.4C466.3 379.3 448.2 341.8 441.6 323.1C435 304.4 424.8 277.4 406.2 249.8C387.6 222.3 385.4 202 374.8 198.3C364.2 194.7 312.8 184.8 312.8 184.8L275.2 187Z" fill="#5C58A6" stroke="black" stroke-miterlimit="10" stroke-linecap="round" stroke-linejoin="round"/>
<path d="M281 175.1V196.8C281 196.8 296.6 208.5 326.5 198.1C326.5 198.1 324.7 183.8 323.9 169.8C323.1 155.7 282.8 176.6 281 175.1Z" fill="white" stroke="black" stroke-miterlimit="10" stroke-linecap="round" stroke-linejoin="round"/>
<path d="M282.4 185.9C282.4 185.9 270.8 186.1 269.4 189.2C268 192.3 269.4 225.4 273.9 225.1C278.4 224.8 304.1 203.4 303.7 198.9C303.3 194.4 282.4 185.9 282.4 185.9Z" fill="#5C58A6" stroke="black" stroke-miterlimit="10" stroke-linecap="round" stroke-linejoin="round"/>
<path d="M325 185.1C325 185.1 336.6 185.3 338 188.4C339.4 191.5 338 224.6 333.5 224.3C329 224 303.3 202.6 303.7 198.1C304.1 193.6 325 185.1 325 185.1Z" fill="#5C58A6" stroke="black" stroke-miterlimit="10" stroke-linecap="round" stroke-linejoin="round"/>
<path d="M303.9 203.5C303.9 203.5 298.9 422.8 311.2 439.4" stroke="black" stroke-miterlimit="10" stroke-linecap="round" stroke-linejoin="round"/>
<path d="M304.2 207.2C305.636 207.2 306.8 206.036 306.8 204.6C306.8 203.164 305.636 202 304.2 202C302.764 202 301.6 203.164 301.6 204.6C301.6 206.036 302.764 207.2 304.2 207.2Z" fill="white" stroke="black" stroke-miterlimit="10" stroke-linecap="round" stroke-linejoin="round"/>
<path d="M308.6 227.7C310.036 227.7 311.2 226.536 311.2 225.1C311.2 223.664 310.036 222.5 308.6 222.5C307.164 222.5 306 223.664 306 225.1C306 226.536 307.164 227.7 308.6 227.7Z" fill="white" stroke="black" stroke-miterlimit="10" stroke-linecap="round" stroke-linejoin="round"/>
<path d="M308.6 253C310.036 253 311.2 251.836 311.2 250.4C311.2 248.964 310.036 247.8 308.6 247.8C307.164 247.8 306 248.964 306 250.4C306 251.836 307.164 253 308.6 253Z" fill="white" stroke="black" stroke-miterlimit="10" stroke-linecap="round" stroke-linejoin="round"/>
<path d="M308.6 278.3C310.036 278.3 311.2 277.136 311.2 275.7C311.2 274.264 310.036 273.1 308.6 273.1C307.164 273.1 306 274.264 306 275.7C306 277.136 307.164 278.3 308.6 278.3Z" fill="white" stroke="black" stroke-miterlimit="10" stroke-linecap="round" stroke-linejoin="round"/>
<path d="M308.6 303.6C310.036 303.6 311.2 302.436 311.2 301C311.2 299.564 310.036 298.4 308.6 298.4C307.164 298.4 306 299.564 306 301C306 302.436 307.164 303.6 308.6 303.6Z" fill="white" stroke="black" stroke-miterlimit="10" stroke-linecap="round" stroke-linejoin="round"/>
<path d="M308.6 335.5C310.036 335.5 311.2 334.336 311.2 332.9C311.2 331.464 310.036 330.3 308.6 330.3C307.164 330.3 306 331.464 306 332.9C306 334.336 307.164 335.5 308.6 335.5Z" fill="white" stroke="black" stroke-miterlimit="10" stroke-linecap="round" stroke-linejoin="round"/>
<path d="M308.6 367.5C310.036 367.5 311.2 366.336 311.2 364.9C311.2 363.464 310.036 362.3 308.6 362.3C307.164 362.3 306 363.464 306 364.9C306 366.336 307.164 367.5 308.6 367.5Z" fill="white" stroke="black" stroke-miterlimit="10" stroke-linecap="round" stroke-linejoin="round"/>
<path d="M309.5 399.4C310.936 399.4 312.1 398.236 312.1 396.8C312.1 395.364 310.936 394.2 309.5 394.2C308.064 394.2 306.9 395.364 306.9 396.8C306.9 398.236 308.064 399.4 309.5 399.4Z" fill="white" stroke="black" stroke-miterlimit="10" stroke-linecap="round" stroke-linejoin="round"/>
<path d="M443.7 411.9C443.7 411.9 454.9 396.3 471.3 386.9L443.7 411.9Z" fill="#5C58A6"/>
<path d="M443.7 411.9C443.7 411.9 454.9 396.3 471.3 386.9" stroke="black" stroke-miterlimit="10" stroke-linecap="round" stroke-linejoin="round"/>
<path d="M186.5 375.8C186.5 375.8 138.7 357.3 177.3 306.5C177.3 306.5 194.3 282.1 196.6 264.7C196.6 264.7 192.3 253.4 233.7 277.5C233.6 277.6 242.7 330 186.5 375.8Z" fill="#5C58A6" stroke="black" stroke-miterlimit="10" stroke-linecap="round" stroke-linejoin="round"/>
<path d="M196.4 264.4C196.4 264.4 228.9 283.8 234.7 280.2C240.5 276.6 198.6 256 196.4 264.4Z" fill="#5A5A81" stroke="black" stroke-miterlimit="10" stroke-linecap="round" stroke-linejoin="round"/>
<path d="M205.1 269.3C205.1 269.3 206.6 266.2 205.4 263.2C204.2 260.2 194.8 233.9 208.9 223.8C208.9 223.8 205.7 223.8 207.6 227.2C207.6 227.2 207.3 222.1 212.2 223.8C212.2 223.8 212.2 218.3 216.9 219.9C221.6 221.5 226.5 203.7 230.7 214.2C235.6 226.3 231.8 211.2 233.7 203.8C234.9 199.1 232.7 181.8 236.8 187.2C240.9 192.5 239.9 198.6 241.2 209.5C242.6 220.4 240.3 232.6 243 228.9C245.7 225.3 243.5 218.9 246.7 219.8C249.9 220.7 252.2 229.8 246.7 238.3C241.2 246.8 229.1 262.4 230 266.2C230.9 270.1 224.8 270.3 225.6 276.9C226.4 283.5 205.1 269.3 205.1 269.3Z" fill="white" stroke="black" stroke-miterlimit="10" stroke-linecap="round" stroke-linejoin="round"/>
<path d="M207.1 226.4C207.6 227.1 213.9 252.4 217.1 251.1C220.3 249.9 217.3 229.9 212.2 223.7" fill="white"/>
<path d="M207.1 226.4C207.6 227.1 213.9 252.4 217.1 251.1C220.3 249.9 217.3 229.9 212.2 223.7" stroke="black" stroke-miterlimit="10" stroke-linecap="round" stroke-linejoin="round"/>
<path d="M212.2 222.8C212.2 222.8 217.3 232.5 218.9 241.7C220.5 250.9 223.2 255.2 223.6 250.2C223.6 250.2 226.5 230.9 219.7 218.9" fill="white"/>
<path d="M212.2 222.8C212.2 222.8 217.3 232.5 218.9 241.7C220.5 250.9 223.2 255.2 223.6 250.2C223.6 250.2 226.5 230.9 219.7 218.9" stroke="black" stroke-miterlimit="10" stroke-linecap="round" stroke-linejoin="round"/>
<path d="M221.9 216C221.9 216 222.7 236.7 224.6 247.2C226.5 257.7 234.7 219.4 232.1 216.3" fill="white"/>
<path d="M221.9 216C221.9 216 222.7 236.7 224.6 247.2C226.5 257.7 234.7 219.4 232.1 216.3" stroke="black" stroke-miterlimit="10" stroke-linecap="round" stroke-linejoin="round"/>
<path d="M191.2 281.8C191.2 281.8 228.8 306.5 232.9 303.1" stroke="black" stroke-miterlimit="10" stroke-linecap="round" stroke-linejoin="round"/>
<path d="M342.4 136.2C342.9 135.2 343.6 134.4 344.3 133.6C345.3 132.7 346.8 131.9 347.9 132.7C348.8 133.3 348.9 134.6 348.7 135.7C348.5 138.1 347.8 140.4 346.8 142.6C345.9 144.5 344.6 146.4 342.7 147.3C342.5 147.4 342.3 147.5 342.1 147.5C341.8 147.5 341.5 147.2 341.5 146.9" fill="white"/>
<path d="M342.4 136.2C342.9 135.2 343.6 134.4 344.3 133.6C345.3 132.7 346.8 131.9 347.9 132.7C348.8 133.3 348.9 134.6 348.7 135.7C348.5 138.1 347.8 140.4 346.8 142.6C345.9 144.5 344.6 146.4 342.7 147.3C342.5 147.4 342.3 147.5 342.1 147.5C341.8 147.5 341.5 147.2 341.5 146.9" stroke="black" stroke-miterlimit="10" stroke-linecap="round" stroke-linejoin="round"/>
<path d="M260.6 136.2C260.1 135.2 259.4 134.4 258.7 133.6C257.7 132.7 256.2 131.9 255.1 132.7C254.2 133.3 254.1 134.6 254.3 135.7C254.5 138.1 255.2 140.4 256.2 142.6C257.1 144.5 258.4 146.4 260.3 147.3C260.5 147.4 260.7 147.5 260.9 147.5C261.2 147.5 261.5 147.2 261.5 146.9" fill="white"/>
<path d="M260.6 136.2C260.1 135.2 259.4 134.4 258.7 133.6C257.7 132.7 256.2 131.9 255.1 132.7C254.2 133.3 254.1 134.6 254.3 135.7C254.5 138.1 255.2 140.4 256.2 142.6C257.1 144.5 258.4 146.4 260.3 147.3C260.5 147.4 260.7 147.5 260.9 147.5C261.2 147.5 261.5 147.2 261.5 146.9" stroke="black" stroke-miterlimit="10" stroke-linecap="round" stroke-linejoin="round"/>
<path d="M254.3 98.8001C253.3 100.1 252.2 182.9 302.8 183.8C353.4 184.8 347.5 82.4001 345.4 82.7001C343.4 83.1001 254.3 98.8001 254.3 98.8001Z" fill="white" stroke="black" stroke-miterlimit="10"/>
<path d="M289.7 158.8C289.7 158.8 311 159.7 316 155.5C316 155.5 307 186.2 289.7 158.8Z" fill="#EEDBEB" stroke="black" stroke-miterlimit="10" stroke-linecap="round" stroke-linejoin="round"/>
<path d="M318.2 153.6C318.2 153.6 320.2 155.6 318.6 158.4" stroke="black" stroke-miterlimit="10" stroke-linecap="round" stroke-linejoin="round"/>
<path d="M252.6 102.9C252.6 102.9 247.7 118.9 252.6 140.6C252.6 140.6 304.2 147.3 347.3 140.6C347.3 140.6 352.6 123.6 347.3 102.9C347.3 102.9 300 97.3 252.6 102.9Z" fill="#C6C6C5" stroke="black" stroke-miterlimit="10" stroke-linecap="round" stroke-linejoin="round"/>
<path d="M347.3 137.9C317.7 142.4 252.6 137.9 252.6 137.9C247.4 122.8 251.9 105.4 251.9 105.4C251.9 105.4 304 100.9 348 105.4C348 105.3 352.5 137.1 347.3 137.9Z" fill="#EEDBEB" stroke="black" stroke-miterlimit="10" stroke-linecap="round" stroke-linejoin="round"/>
<path d="M341 118.2C341.1 118.6 341.8 129.3 341 132.3" stroke="black" stroke-miterlimit="10" stroke-linecap="round" stroke-linejoin="round"/>
<path d="M252.2 104.7C249.6 103.6 246.7 102.3 245.4 99.7001C244.6 98.1002 244.5 96.2001 243.2 95.0001C242.6 94.5001 241.8 94.2001 241.3 93.6001C240.8 93.0001 240.6 92.0001 241.3 91.5001C240.5 91.2001 239.6 90.9001 239.1 90.2001C238.6 89.5001 238.8 88.2001 239.7 88.1001C238.4 87.5001 238.3 85.4001 239.5 84.6001C238.1 85.0001 236.4 84.5001 235.6 83.3001C236.7 83.1001 237.7 82.5001 238.3 81.6001C236.9 81.7001 235.6 80.3001 235.9 78.9001C236.5 78.9001 237.1 78.8001 237.7 78.8001C238.1 77.7001 237.1 76.4001 235.9 76.5001C235.5 75.0001 239 74.7001 238.5 73.3001C238.3 72.8001 237.6 72.6001 237.1 72.3001C235.9 71.6001 236.1 69.5001 237.3 68.9001C236.1 68.5001 235.5 66.9001 236.3 65.8001C237 64.8001 238.8 64.7001 239.6 65.7001C239.6 64.7001 239.5 63.6001 239.5 62.6001C240.1 61.8001 241.3 62.6001 241.9 63.4001C242.5 64.2001 243.7 65.1001 244.3 64.3001C244.5 64.0001 244.6 63.6001 244.7 63.3001C245.4 62.2001 247.1 63.3001 247.8 64.3001C248.6 64.3001 249 63.4001 249 62.7001C249 61.9001 248.9 61.1001 249.3 60.5001C249.6 60.0001 250.3 59.7001 250.8 59.3001C251.3 58.9001 251.7 58.2001 251.3 57.6001C249.7 57.8001 248 57.0001 247.3 55.6001C246.6 54.2001 246.9 52.3001 248 51.1001C248.8 50.3001 250.5 50.1001 250.9 51.1001C251.5 50.6001 252 50.1001 252.6 49.7001C253 50.7001 253.3 51.6001 253.7 52.6001C254.2 52.2001 254.7 51.9001 255.2 51.5001C254.5 52.6001 256.7 53.8001 257.5 52.7001C258.3 51.6001 257.4 50.0001 256.1 49.6001C257.3 50.0001 258.5 48.5001 257.9 47.4001C257.7 47.0001 257.3 46.6001 257 46.2001C256.8 45.7001 257 45.0001 257.5 45.0001C256.3 45.1001 256.1 42.9001 257.3 42.8001C257.8 42.8001 258.2 43.0001 258.6 43.0001C259.5 43.1001 260.2 42.4001 261 42.1001C261.8 41.8001 263.1 42.3001 262.8 43.1001C263.3 42.1001 264 40.9001 265.1 40.7001C266.2 40.4001 267.5 41.9001 266.7 42.7001C267.2 43.1001 267.9 43.2001 268.5 42.8001C268.6 43.4001 268.6 43.9001 268.7 44.5001C269.2 45.2001 270.1 43.8001 269.5 43.2001C268.9 42.6001 268 42.2001 267.8 41.4001C267.6 40.6001 268.3 39.9001 269.1 39.8001C269.9 39.7001 270.6 40.2001 271.2 40.8001C271.7 39.8001 273 38.8001 273.7 39.6001C273.9 39.9001 274 40.3001 274.2 40.6001C274.7 41.3001 276 40.4001 275.6 39.7001C276.5 39.7001 277.4 40.1001 278 40.8001C278.4 40.0001 279.4 39.5001 280.4 39.7001C281.3 39.9001 278.2 43.9001 280.4 44.0001C281.1 44.0001 281.6 43.5001 281.9 42.9001C282 43.6001 282.5 44.2001 283.1 44.4001C283.8 44.6001 284.5 44.3001 285 43.8001C285.2 44.6001 286.1 45.0001 286.9 44.8001C287.7 44.6001 288.2 43.9001 288.4 43.1001C288 43.0001 287.6 42.8001 287.4 42.5001C287.2 42.2001 287.1 41.7001 287.4 41.4001C287.7 41.1001 288.3 41.3001 288.6 41.1001C289.2 40.7001 288.7 39.8001 288.3 39.3001C287.9 38.8001 287.6 37.8001 288.2 37.5001C288.4 37.4001 288.7 37.5001 288.9 37.3001C289.3 36.9001 288.3 36.0001 288.7 35.6001C289.1 35.2001 289.8 35.1001 290.2 35.4001C290.5 35.6001 290.9 36.0001 291.2 35.8001C291.4 35.6001 291.4 35.2001 291.5 35.0001C291.8 34.5001 292.5 34.7001 293.1 35.0001C293.6 35.3001 294.4 35.4001 294.6 34.8001C294.4 35.2001 295.1 35.5001 295.6 35.3001C296.1 35.1001 296.3 34.6001 296.8 34.6001C297 34.6001 297.2 34.7001 297.5 34.8001C298.5 35.0001 299.4 33.7001 298.9 32.9001C299.3 32.6001 299.7 32.4001 300.2 32.5001C300.6 32.6001 301 33.2001 300.7 33.6001C301.4 33.5001 302.4 33.5001 302.4 34.2001C302.4 34.7001 301.9 35.3001 302.2 35.6001C302.6 36.0001 303.4 35.1001 303.9 35.4001C304.5 35.8001 303.5 37.0001 304.1 37.4001C304.7 37.8001 305.3 36.7001 306 36.7001C305.9 37.5001 307.3 37.9001 307.7 37.2001C307.9 37.6001 308 38.1001 307.8 38.5001C308.2 38.6001 308.6 38.6001 309 38.4001C309.3 38.2001 309.4 37.6001 309.2 37.3001C309 37.1001 308.7 37.0001 308.5 36.9001C308.2 36.6001 308.1 36.1001 308.4 35.8001C308.7 35.5001 309.3 35.5001 309.5 35.8001C309.8 35.8001 309.9 35.4001 309.8 35.2001C309.7 35.0001 309.4 34.8001 309.3 34.5001C309 34.0001 309.5 33.3001 310.1 33.4001C310.7 33.5001 310.9 34.3001 310.5 34.7001C311.2 34.9001 312 34.6001 312.5 34.0001C312.5 34.4001 312.6 34.8001 312.6 35.2001C313.3 35.1001 314.1 35.0001 314.8 34.9001C315 35.5001 314.9 36.3001 314.5 36.8001C315.4 36.9001 315.9 38.6001 316.7 38.2001C317.2 37.9001 317.3 36.7001 317.9 36.9001C318.2 37.5001 318.9 38.3001 319.4 37.8001C319.7 37.5001 319.6 36.8001 320.1 36.7001C320.4 36.6001 320.7 36.8001 320.9 37.0001C322.1 37.5001 323.4 35.8001 324.5 36.4001C324.5 37.1001 324.4 37.8001 324.4 38.6001C325.6 39.1001 327.1 39.2001 328.4 38.7001C328.7 39.0001 328.4 39.5001 328.1 39.9001C327.8 40.2001 327.7 40.9001 328.1 41.0001C328.3 41.1001 328.5 40.9001 328.7 40.8001C329.2 40.6001 329.9 40.8001 330.2 41.3001C330.5 41.8001 330.4 42.4001 330 42.8001C330.4 43.0001 330.9 43.1001 331.3 42.9001C331.3 42.5001 331.3 42.2001 331.3 41.8001C331.7 41.6001 332.4 41.6001 332.5 42.0001C332.5 42.2001 332.3 42.4001 332.2 42.6001C331.9 43.2001 332.9 43.9001 333.4 43.4001C333.6 43.2001 333.7 42.9001 333.9 42.7001C334.1 42.5001 334.6 42.7001 334.5 42.9001C334.6 42.6001 335 42.4001 335.1 42.1001C335.2 41.8001 335.4 41.4001 335.7 41.6001C335.8 41.7001 335.9 41.8001 336 41.9001C336.4 42.1001 336.7 41.3001 337.2 41.3001C337.5 41.3001 337.7 41.7001 337.7 42.0001C337.7 42.3001 337.8 42.7001 338 42.9001C338.5 43.2001 339.2 42.5001 339.7 42.9001C340.2 43.3001 339.7 44.3001 340.2 44.5001C340.5 44.6001 340.9 44.3001 341.2 44.5001C341.4 44.7001 341.4 45.0001 341.3 45.3001C341.2 45.6001 341.2 46.0001 341.5 46.0001C341.1 46.3001 340.8 46.8001 341.1 47.1001C341.4 47.4001 342 47.0001 342.4 47.2001C342.7 47.3001 342.7 47.6001 342.8 47.9001C342.9 48.2001 343.1 48.5001 343.4 48.4001C343.6 48.4001 343.7 48.2001 343.9 48.2001C344.2 48.2001 344.4 48.6001 344.3 49.0001C344.2 49.3001 344.1 49.7001 344.3 50.0001C344.6 50.5001 345.5 50.0001 345.9 50.3001C346.3 50.7001 345.9 51.5001 346.2 51.9001C346.5 52.2001 347 52.2001 347.3 52.6001C347.5 52.8001 347.4 53.2001 347.3 53.4001C347 54.1001 346.8 54.9001 346.5 55.6001C346.4 55.8001 346.4 56.1001 346.5 56.3001C346.8 56.7001 347.8 56.1001 348 56.6001C348 56.7001 348 56.8001 348 57.0001C348 57.4001 348.5 57.8001 348.9 57.7001C348.7 58.2001 349 58.7001 349.4 59.0001C349.6 59.1001 349.9 59.1001 350 59.3001C350.1 59.5001 349.9 59.9001 349.7 60.0001C349.5 60.2001 349.2 60.4001 349.2 60.6001C349.1 61.0001 349.5 61.3001 349.9 61.4001C350.3 61.5001 350.7 61.3001 351 61.1001C350.9 61.7001 351.6 62.2001 352 62.7001C352.7 63.5001 353.1 64.6001 352.6 65.5001C353.1 65.1001 353.9 65.4001 354.3 65.9001C354.7 66.4001 354.8 67.1001 354.8 67.7001C354.8 68.0001 354.8 68.4001 354.6 68.6001C354.3 68.9001 353.8 68.9001 353.4 69.2001C352.8 69.6001 352.8 70.4001 352.6 71.1001C352.4 71.8001 351.6 72.5001 351.1 72.0001C350.9 72.5001 351.5 72.9001 351.9 73.1001C352.9 73.6001 353.7 74.2001 354.5 75.0001C354.7 75.2001 355 75.5001 355.1 75.8001C355.4 76.7001 354 77.7001 353.3 77.0001C353.5 77.9001 353.6 78.9001 353.8 79.8001C353.2 79.6001 352.6 79.4001 352 79.2001C352.3 79.8001 352.7 80.4001 353 81.0001C352.3 81.0001 351.7 81.1001 351 81.1001C351.5 81.8001 352.1 82.5001 352.6 83.3001C353 83.8001 353.4 84.4001 353.5 85.0001C353.6 85.7001 353.1 86.4001 352.5 86.4001C353.2 86.9001 354 87.5001 354.1 88.4001C354.2 89.3001 352.8 90.0001 352.4 89.2001C352.4 90.1001 352.7 91.0001 353.1 91.8001C352.7 91.7001 352.3 91.6001 351.9 91.7001C351.5 91.8001 351.2 92.3001 351.4 92.6001C351.7 93.2001 352.6 92.9001 353.1 93.3001C353.8 93.9001 352.9 94.9001 352.1 95.3001C352.8 95.7001 353.5 96.6001 352.9 97.1001C352.2 97.7001 351.1 96.3001 350.3 96.7001C350 97.5002 350.2 98.4001 350.8 98.9001C350.3 98.7001 349.9 99.3001 349.9 99.9001C349.9 100.4 350.2 100.9 350.2 101.4C350.1 102.3 349.1 102.8 348.1 102.8C347.2 102.8 346.3 102.5 345.4 102.5C344.5 102.5 343.4 103.1 343.4 104C342.5 103.6 341.7 103.1 340.8 102.7C340.6 103 340.4 103.3 340.3 103.6C339.9 103.9 339.3 103.5 339 103.1C338.7 102.7 338.4 102.1 337.9 102C337.5 101.9 337 102.2 336.7 102.1C336.3 101.9 336.3 101.4 335.9 101.1C335 100.5 334.6 102.8 333.5 102.9C332.9 103 332.2 103.4 331.5 103.6C331.5 102.9 331.3 102 330.6 102.1C330.2 102.1 330 102.5 329.6 102.6C328.9 102.8 328.3 101.9 328.1 101.2C327.9 101.8 327.1 101.9 326.5 101.6C325.9 101.3 325.5 100.8 324.9 100.7C324.3 100.6 323.6 100.8 323.1 100.5C322.8 100.3 322.7 100 322.4 99.8001C321.4 99.2001 320.5 100.8 319.4 101C318.5 101.1 317.5 100.3 316.7 100.7C316.4 100.8 316.2 101.1 315.9 101.2C315.5 101.3 315.1 101.1 314.7 100.9C313.6 100.4 312.2 100.6 311.3 101.3C311.1 101.5 310.9 101.7 310.6 101.7C310.1 101.8 309.7 101.6 309.2 101.3C308.3 100.7 307.4 100.1 306.5 99.5001C306.2 99.3001 305.9 99.1001 305.6 99.1001C305.4 99.1001 305.1 99.2001 304.9 99.3001C304.1 99.7001 303.3 100.1 302.5 100.5C302.4 101 301 101.2 300.5 101C300 100.8 299.6 100.4 299.1 100.3C298.7 100.2 298.3 100.4 297.9 100.2C297.5 100.1 297.3 99.7001 297 99.5001C296.4 99.0001 295.5 98.9001 294.7 98.9001C293.6 98.9001 292.5 98.8001 291.5 99.2001C291 99.4001 290.6 99.7001 290.1 99.9001C289.6 100.2 289 100.3 288.4 100.5C286.5 101.1 284.5 101.7 282.6 100.9C282.3 100.8 281.9 100.6 281.5 100.6C281 100.6 280.6 100.9 280.1 100.9C279.1 101.1 278 100.4 277 100.9C276.5 101.1 276.1 101.7 275.5 101.6C274.9 101.6 274.6 100.9 274.1 100.7C272.9 100 271.6 101.6 270.1 101.7C269.5 101.7 268.8 101.4 268.2 101.7C267.8 101.8 267.6 102.2 267.2 102.3C266.8 102.4 266.3 102 266.6 101.7C266.3 101.5 265.3 101.9 265 102.1C264.7 102.3 264.4 102.6 264 102.6C263.1 102.7 262.4 101.5 261.6 101.8C261.4 101.9 261.2 102 261 102.1C260.6 102.3 260 102.2 259.6 102.1C259.1 102 258.5 102.1 258.3 102.5C258.2 102.6 258.2 102.8 258.1 102.9C257.9 103.3 257.3 103.5 256.9 103.5C256.4 103.5 256 103.3 255.5 103.3C254.6 103.7 253.2 104.3 252.2 104.7Z" fill="#3A3A3A" stroke="black" stroke-miterlimit="10" stroke-linecap="round" stroke-linejoin="round"/>
<g opacity="0.8">
<path opacity="0.8" d="M35.9 204.3V495.4C35.9 495.4 265.1 552.9 557.9 495.4V204.3C557.9 204.3 365.6 260.1 35.9 204.3Z" fill="#D9D4E8" stroke="black" stroke-width="0.25" stroke-miterlimit="10"/>
<g opacity="0.8">
<g opacity="0.8">
<path opacity="0.8" d="M56.2 229.4C56.2 229.4 51.5 303.8 56.2 308.5C60.9 313.2 110.2 321.6 127.5 317.9C127.5 317.9 132.7 250.3 127.5 241.4C122.2 232.6 67.7 225.8 56.2 229.4Z" fill="white" stroke="black" stroke-miterlimit="10" stroke-linecap="round" stroke-linejoin="round"/>
<g opacity="0.8">
<path opacity="0.8" d="M78.1 280C79.0389 280 79.8 279.239 79.8 278.3C79.8 277.361 79.0389 276.6 78.1 276.6C77.1611 276.6 76.4 277.361 76.4 278.3C76.4 279.239 77.1611 280 78.1 280Z" fill="white" stroke="black" stroke-miterlimit="10" stroke-linecap="round" stroke-linejoin="round"/>
<g opacity="0.8">
<path opacity="0.8" d="M94.7 265.6C94.6 266.3 94.6 267 94.5 267.7C94.5 267.8 94.5 267.9 94.6 268C95.3 268.9 95.6 269.9 95.4 271C95.1 273 93.5 274.5 91.5 274.7C89.3 274.8 87.3 273.1 87.1 270.9C87 269.6 87.4 268.4 88.4 267.5C88.5 267.4 88.5 267.3 88.6 267.2C88.7 265.8 89.4 257.2 89.6 255.8C89.7 254.3 90.8 253 92.4 253C93.4 253 94.3 253.4 94.9 254.1C95.4 254.8 95.6 255.6 95.6 256.4C95.4 257.1 94.7 265 94.7 265.6ZM93.5 265.8C93.6 265 94.3 257 94.3 256.3C94.4 255.6 94.1 254.9 93.7 254.6C93.2 254.2 92.4 254 91.8 254.3C91.2 254.6 90.8 255.3 90.8 255.9C90.7 257.4 89.9 266.1 89.8 267.6C89.8 267.9 89.7 268.1 89.4 268.3C88.8 268.8 88.5 269.4 88.4 270.1C88.1 272 89.6 273.6 91.5 273.5C93.3 273.4 94.6 271.8 94.3 270C94.2 269.4 93.9 268.8 93.5 268.3C93.4 268.2 93.4 268.1 93.4 268C93.3 267.4 93.4 266.6 93.5 265.8Z" fill="#1E1D44"/>
<path opacity="0.8" d="M92.2 268.9V268.8C92.3 268.1 92.7 262.6 92.7 262.6C92.7 262.2 92.4 261.8 92 261.7C91.6 261.7 91.2 262 91.1 262.4C91.1 262.4 90.7 267.1 90.6 268.6C90.6 268.7 90.6 268.7 90.6 268.7C89.8 268.9 89.3 269.6 89.2 270.5C89.2 270.7 89.2 270.9 89.2 271.1C89.4 272 90.1 272.7 91 272.8C92 272.9 92.9 272.3 93.1 271.3C93.1 271.2 93.2 271 93.2 270.9C93.3 270 92.9 269.2 92.2 268.9Z" fill="#AEA7D3"/>
</g>
</g>
</g>
<g opacity="0.8">
<path opacity="0.8" d="M155.5 242.3C155.5 242.3 150.8 316.7 155.5 321.4C160.2 326.1 209.7 330.1 227 326.4C227 326.4 230.7 258.7 225.5 249.8C220.2 241 167 238.6 155.5 242.3Z" fill="white" stroke="black" stroke-miterlimit="10" stroke-linecap="round" stroke-linejoin="round"/>
<g opacity="0.8">
<path opacity="0.8" d="M190.9 284.5C187.3 284.5 184.4 282.1 183.8 278.5C183.5 276.6 183.8 274.8 184.9 273.3C185.7 272.2 186.5 271.1 187.3 270.1C187.7 269.6 188.1 269.1 188.5 268.5L188.6 268.4C189.2 267.6 189.8 266.8 189.9 265.9C190 265.5 190.3 265.2 190.7 265.1H190.8C191.2 265.1 191.6 265.4 191.7 265.8C192 267.1 192.9 268.2 193.8 269.3C194.1 269.7 194.5 270.1 194.8 270.5C195.6 271.6 196.5 272.8 197.3 274.1C197.9 275.1 198.2 276.2 198.1 277.2C198.1 281 195.2 284.2 191.6 284.4C191.3 284.4 191.1 284.5 190.9 284.5ZM190.8 267.5C190.5 268.2 190.1 268.7 189.6 269.3L189.5 269.4C189.1 269.9 188.7 270.4 188.3 271C187.5 272 186.7 273.1 186 274.2C185.2 275.4 184.9 276.8 185.1 278.4C185.6 281.2 188 283.2 190.9 283.2C191.1 283.2 191.2 283.2 191.4 283.2C194.2 283 196.5 280.4 196.6 277.4C196.7 276.7 196.4 275.8 196 275.1C195.2 273.9 194.4 272.7 193.6 271.6C193.3 271.2 193 270.8 192.7 270.4C192 269.3 191.3 268.5 190.8 267.5Z" fill="#1E1D44"/>
<g opacity="0.8">
<g opacity="0.8">
<path opacity="0.8" d="M195.5 277.1V277.2C195.5 279.7 193.6 281.8 191.3 282C191.2 282 191 282 190.9 282C188.5 282 186.6 280.4 186.2 278.1C186 276.8 186.2 275.7 186.9 274.7C187.2 274.3 187.4 273.9 187.7 273.5C188 273.7 188.4 273.8 188.8 273.8C189.5 273.8 190 273.5 190.4 273C190.5 272.9 190.7 272.9 190.8 273C191.1 273.5 191.7 273.8 192.4 273.8C192.9 273.8 193.4 273.6 193.7 273.3C194.2 274 194.6 274.7 195.1 275.4C195.4 275.9 195.6 276.6 195.5 277.1Z" fill="#AEA7D3"/>
</g>
</g>
</g>
</g>
<g opacity="0.8">
<path opacity="0.8" d="M249.8 246.9C249.8 246.9 245.1 321.3 249.8 326C254.5 330.7 304 334.7 321.3 331C321.3 331 325 263.3 319.8 254.4C314.6 245.5 261.3 243.2 249.8 246.9Z" fill="white" stroke="black" stroke-miterlimit="10" stroke-linecap="round" stroke-linejoin="round"/>
<g opacity="0.8">
<path opacity="0.8" d="M295.9 291.6C298.7 291.6 300.9 289.4 300.9 286.6C300.9 283.8 298.7 281.6 295.9 281.6C295.5 281.6 295.2 281.6 294.8 281.7C294.7 278.2 291.8 275.5 288.4 275.6C285.9 275.7 283.7 277.2 282.7 279.5C281 278.1 278.4 278.4 277.1 280.2C276.5 280.9 276.2 281.8 276.2 282.7V282.8C273.8 283.4 272.2 285.8 272.8 288.2C273.3 290.3 275.1 291.7 277.2 291.7H289.8" stroke="#1E1D44" stroke-width="1.8" stroke-miterlimit="10" stroke-linecap="round" stroke-linejoin="round"/>
<path opacity="0.8" d="M293.5 290.5C295.5 290.5 297.2 288.8 297.2 286.6C297.2 284.4 295.6 282.7 293.5 282.7C293.2 282.7 293 282.7 292.7 282.8C292.6 280.1 290.5 278 288 278C286.2 278 284.5 279.2 283.8 281C282.5 279.9 280.7 280.2 279.7 281.5C279.3 282.1 279.1 282.7 279.1 283.4V283.5C277.3 283.9 276.2 285.8 276.6 287.7C276.9 289.3 278.3 290.4 279.8 290.4H289" fill="#AEA7D3"/>
<g opacity="0.8">
<path opacity="0.8" d="M288.8 281.5C289.9 281.5 290.8 282.4 290.8 283.5V286.5C290.8 287.6 289.9 288.5 288.8 288.5C287.7 288.5 286.8 287.6 286.8 286.5V283.5C286.8 282.4 287.7 281.5 288.8 281.5Z" stroke="#1E1D44" stroke-miterlimit="10" stroke-linecap="round" stroke-linejoin="round"/>
<path opacity="0.8" d="M285.3 286.5C285.3 287.6 284.4 288.5 283.3 288.5C282.2 288.5 281.3 287.6 281.3 286.5V283.5C281.3 282.4 282.2 281.5 283.3 281.5C284.4 281.5 285.3 282.4 285.3 283.5" stroke="#1E1D44" stroke-miterlimit="10" stroke-linecap="round" stroke-linejoin="round"/>
<path opacity="0.8" d="M293.9 293.1H291.9L293.7 290.7C293.8 290.5 293.9 290.3 293.9 290.1C293.9 289.5 293.4 289.1 292.9 289.1C292.3 289.1 291.9 289.6 291.9 290.1" stroke="#1E1D44" stroke-miterlimit="10" stroke-linecap="round" stroke-linejoin="round"/>
</g>
</g>
</g>
<g opacity="0.8">
<g opacity="0.8">
<path opacity="0.8" d="M161.8 489.6C201.123 489.6 233 457.723 233 418.4C233 379.077 201.123 347.2 161.8 347.2C122.477 347.2 90.6 379.077 90.6 418.4C90.6 457.723 122.477 489.6 161.8 489.6Z" fill="#EEEEF7" stroke="black" stroke-width="2" stroke-miterlimit="10" stroke-linecap="round" stroke-linejoin="round" stroke-dasharray="6 6"/>
<path opacity="0.8" d="M226 449.2C226 449.2 260.1 377.4 178.6 349.1C178.6 349.1 109.9 334.4 92.2 403.1" stroke="#5C58A6" stroke-width="6" stroke-miterlimit="10" stroke-linecap="round" stroke-linejoin="round"/>
<path opacity="0.8" d="M92.1 411.4C95.3032 411.4 97.9 408.803 97.9 405.6C97.9 402.397 95.3032 399.8 92.1 399.8C88.8967 399.8 86.3 402.397 86.3 405.6C86.3 408.803 88.8967 411.4 92.1 411.4Z" fill="white" stroke="#5C58A6" stroke-width="3" stroke-miterlimit="10" stroke-linecap="round" stroke-linejoin="round"/>
<g opacity="0.8">
<path opacity="0.8" d="M161.8 462.5C186.156 462.5 205.9 442.756 205.9 418.4C205.9 394.044 186.156 374.3 161.8 374.3C137.444 374.3 117.7 394.044 117.7 418.4C117.7 442.756 137.444 462.5 161.8 462.5Z" fill="white" stroke="black" stroke-miterlimit="10" stroke-linecap="round" stroke-linejoin="round"/>
<g opacity="0.8">
<g opacity="0.8">
<path opacity="0.8" d="M149.2 399.9C150.139 399.9 150.9 399.139 150.9 398.2C150.9 397.261 150.139 396.5 149.2 396.5C148.261 396.5 147.5 397.261 147.5 398.2C147.5 399.139 148.261 399.9 149.2 399.9Z" fill="white" stroke="black" stroke-miterlimit="10" stroke-linecap="round" stroke-linejoin="round"/>
</g>
<g opacity="0.8">
<g opacity="0.8">
<path opacity="0.8" d="M141.2 428.1C141.752 428.1 142.2 427.652 142.2 427.1C142.2 426.548 141.752 426.1 141.2 426.1C140.648 426.1 140.2 426.548 140.2 427.1C140.2 427.652 140.648 428.1 141.2 428.1Z" stroke="#575757" stroke-width="0.75" stroke-miterlimit="10"/>
</g>
<path opacity="0.8" d="M137.839 434.581C138.316 434.581 138.726 434.469 139.07 434.244C139.414 434.019 139.679 433.709 139.864 433.314C140.049 432.919 140.142 432.468 140.142 431.961C140.142 431.445 140.047 430.989 139.857 430.594C139.666 430.197 139.399 429.887 139.057 429.665C138.713 429.44 138.311 429.327 137.852 429.327C137.495 429.327 137.173 429.393 136.886 429.526C136.599 429.658 136.364 429.843 136.181 430.081C135.998 430.32 135.885 430.598 135.841 430.915H136.621C136.681 430.684 136.813 430.479 137.018 430.3C137.221 430.119 137.495 430.029 137.839 430.029C138.143 430.029 138.41 430.108 138.64 430.267C138.867 430.423 139.045 430.645 139.173 430.932C139.298 431.216 139.361 431.551 139.361 431.934C139.361 432.327 139.299 432.669 139.176 432.96C139.05 433.251 138.874 433.477 138.646 433.638C138.417 433.799 138.148 433.88 137.839 433.88C137.636 433.88 137.452 433.845 137.287 433.774C137.121 433.704 136.981 433.602 136.866 433.47C136.752 433.337 136.67 433.179 136.621 432.993H135.841C135.885 433.293 135.994 433.563 136.168 433.804C136.34 434.042 136.568 434.232 136.853 434.373C137.135 434.512 137.464 434.581 137.839 434.581Z" fill="#575757"/>
</g>
</g>
</g>
</g>
<g opacity="0.8">
<path opacity="0.8" d="M240.1 502.3C246.341 502.3 251.4 497.241 251.4 491C251.4 484.759 246.341 479.7 240.1 479.7C233.859 479.7 228.8 484.759 228.8 491C228.8 497.241 233.859 502.3 240.1 502.3Z" fill="#DFD6EA" stroke="black" stroke-miterlimit="10" stroke-linecap="round" stroke-linejoin="round"/>
<path opacity="0.8" d="M245.7 491.3L234.8 491.2" stroke="black" stroke-width="3" stroke-miterlimit="10" stroke-linecap="round" stroke-linejoin="round"/>
</g>
<g opacity="0.8">
<path opacity="0.8" d="M74.7 484.3C80.9408 484.3 86 479.241 86 473C86 466.759 80.9408 461.7 74.7 461.7C68.4592 461.7 63.4 466.759 63.4 473C63.4 479.241 68.4592 484.3 74.7 484.3Z" fill="#DFD6EA" stroke="black" stroke-miterlimit="10" stroke-linecap="round" stroke-linejoin="round"/>
<g opacity="0.8">
<path opacity="0.8" d="M80.2 473L69.2 473.1" stroke="black" stroke-width="3" stroke-miterlimit="10" stroke-linecap="round" stroke-linejoin="round"/>
<path opacity="0.8" d="M74.6 467.6L74.8 478.5" stroke="black" stroke-width="3" stroke-miterlimit="10" stroke-linecap="round" stroke-linejoin="round"/>
</g>
</g>
</g>
<g opacity="0.8">
<path opacity="0.8" d="M530.8 262.9C530.8 262.9 539.5 302.8 536.8 305.9C533.6 309.7 364.8 316.9 354.8 314C354.8 314 345 289.5 349.3 274.3C353.6 259.1 530.8 262.9 530.8 262.9Z" fill="white" stroke="black" stroke-miterlimit="10" stroke-linecap="round" stroke-linejoin="round"/>
<path opacity="0.8" d="M444.2 269.5C444.2 269.5 446.2 292.4 451.3 303.4" stroke="black" stroke-miterlimit="10" stroke-linecap="round" stroke-linejoin="round"/>
<path opacity="0.8" d="M431.8 284.5C433.5 285.6 437.2 289.1 439.1 290.3C440.6 291.2 440 289.8 440 289.8C439.5 288.8 438.6 287.1 438.1 286.3C437.8 285.8 438.1 285.7 438.3 285.7L440.9 285.2C441.3 285.1 441.5 284.9 441.3 284.4C440.5 283.1 438.5 280.1 437.8 278.8C437.5 278.4 437.3 278.3 436.9 278.4L432.3 279.4C431.8 279.5 432 279.8 432.3 280.1C433 280.8 434.1 282.2 434.6 282.9C435 283.3 434.6 283.3 434.4 283.4L432 283.9C431.4 283.9 431.5 284.2 431.8 284.5Z" fill="#AEA7D3"/>
<g opacity="0.8">
<g opacity="0.8">
<path opacity="0.8" fill-rule="evenodd" clip-rule="evenodd" d="M521.6 272.7C520.3 271.9 519 271.7 517.5 272C516 272.3 514.8 273.1 514 274.4C513.2 275.7 512.9 277.1 513.2 278.6C513.5 280.1 514.3 281.3 515.6 282.1C516.9 282.9 518.3 283.2 519.8 282.9C521.3 282.6 522.5 281.8 523.3 280.5C524.1 279.3 524.3 278.1 524.2 276.8L521.5 277.4C521.5 277.5 521.5 277.5 521.5 277.6C521.5 278 521.4 278.4 521.1 278.7C520.9 279 520.7 279.2 520.4 279.4C520.2 279.5 519.9 279.6 519.7 279.7L518 280.1L517.8 279.2L515.9 279.6C515.8 279.6 515.7 279.6 515.5 279.5C515.4 279.4 515.3 279.3 515.3 279.2C515.3 279.1 515.3 279 515.4 278.8C515.5 278.7 515.6 278.6 515.7 278.6L517.6 278.2L517.4 277.3L515.5 277.7C515.4 277.7 515.3 277.7 515.1 277.6C515 277.5 514.9 277.4 514.9 277.3C514.9 277.2 514.9 277.1 515 276.9C515.1 276.8 515.2 276.7 515.3 276.7L517.2 276.3L517 275.4L518.7 275C519 274.9 519.2 274.9 519.5 275C519.8 275 520.1 275.2 520.4 275.4C520.8 275.7 521.1 276 521.3 276.4L525 275.6C525 275.7 525.1 275.9 525.1 276.1C525.5 277.9 525.2 279.5 524.2 281C523.2 282.5 521.8 283.5 520.1 283.8C518.3 284.2 516.7 283.9 515.2 282.9C513.7 281.9 512.7 280.5 512.4 278.8C512 277 512.3 275.4 513.3 273.9C514.3 272.4 515.7 271.4 517.4 271.1C519.1 270.7 520.7 271 522.2 272L521.6 272.7Z" fill="#AEA7D3"/>
</g>
</g>
</g>
<g opacity="0.8">
<path opacity="0.8" d="M516.8 336V471.7C516.8 471.7 320 499.5 283.3 472.1" stroke="black" stroke-miterlimit="10" stroke-linecap="round" stroke-linejoin="round"/>
<g opacity="0.8">
<path opacity="0.8" d="M489.472 490.27C490.12 490.27 490.672 490.094 491.128 489.741C491.584 489.386 491.932 488.871 492.173 488.197C492.414 487.52 492.534 486.703 492.534 485.745C492.534 484.793 492.414 483.98 492.173 483.306C491.929 482.63 491.579 482.113 491.123 481.758C490.665 481.399 490.114 481.22 489.472 481.22C488.829 481.22 488.28 481.399 487.824 481.758C487.365 482.113 487.015 482.63 486.775 483.306C486.531 483.98 486.409 484.793 486.409 485.745C486.409 486.703 486.529 487.52 486.77 488.197C487.011 488.871 487.36 489.386 487.816 489.741C488.271 490.094 488.823 490.27 489.472 490.27ZM489.472 489.324C488.829 489.324 488.33 489.014 487.975 488.395C487.619 487.775 487.441 486.892 487.441 485.745C487.441 484.982 487.523 484.333 487.686 483.797C487.847 483.26 488.079 482.852 488.383 482.571C488.684 482.29 489.047 482.149 489.472 482.149C490.108 482.149 490.606 482.463 490.964 483.091C491.323 483.716 491.502 484.601 491.502 485.745C491.502 486.508 491.422 487.156 491.261 487.689C491.1 488.223 490.87 488.629 490.568 488.907C490.264 489.185 489.899 489.324 489.472 489.324ZM481.677 481.341V490.15H482.744V482.459H482.796L484.946 483.887V482.803L482.744 481.341H481.677Z" fill="black"/>
<path opacity="0.8" d="M535.913 456.822C536.561 456.822 537.113 456.646 537.569 456.293C538.025 455.937 538.373 455.423 538.614 454.749C538.855 454.072 538.976 453.255 538.976 452.297C538.976 451.345 538.855 450.532 538.614 449.858C538.371 449.181 538.021 448.665 537.565 448.31C537.106 447.951 536.555 447.772 535.913 447.772C535.271 447.772 534.721 447.951 534.266 448.31C533.807 448.665 533.457 449.181 533.216 449.858C532.972 450.532 532.85 451.345 532.85 452.297C532.85 453.255 532.971 454.072 533.212 454.749C533.453 455.423 533.801 455.937 534.257 456.293C534.713 456.646 535.265 456.822 535.913 456.822ZM535.913 455.876C535.271 455.876 534.772 455.566 534.416 454.947C534.06 454.327 533.883 453.444 533.883 452.297C533.883 451.534 533.964 450.885 534.128 450.348C534.288 449.812 534.521 449.404 534.825 449.122C535.126 448.841 535.489 448.701 535.913 448.701C536.55 448.701 537.047 449.015 537.406 449.643C537.764 450.268 537.943 451.153 537.943 452.297C537.943 453.06 537.863 453.708 537.702 454.241C537.542 454.775 537.311 455.18 537.01 455.459C536.706 455.737 536.34 455.876 535.913 455.876Z" fill="black"/>
<path opacity="0.8" d="M536.033 413.683C536.538 413.683 536.993 413.583 537.397 413.382C537.801 413.182 538.125 412.906 538.369 412.556C538.613 412.207 538.746 411.808 538.769 411.361H537.737C537.697 411.759 537.516 412.089 537.195 412.35C536.871 412.608 536.484 412.737 536.033 412.737C535.672 412.737 535.351 412.653 535.07 412.483C534.786 412.314 534.564 412.082 534.403 411.786C534.24 411.488 534.158 411.151 534.158 410.776C534.158 410.391 534.243 410.049 534.412 409.748C534.578 409.444 534.808 409.204 535.1 409.029C535.392 408.854 535.727 408.765 536.102 408.763C536.372 408.76 536.649 408.801 536.932 408.887C537.216 408.97 537.45 409.078 537.634 409.21L538.631 409.089L538.098 404.754H533.521V405.7H537.203L537.513 408.298H537.462C537.281 408.155 537.054 408.036 536.782 407.941C536.509 407.846 536.226 407.799 535.93 407.799C535.391 407.799 534.911 407.928 534.489 408.186C534.065 408.441 533.732 408.791 533.491 409.236C533.248 409.68 533.126 410.188 533.126 410.758C533.126 411.32 533.252 411.822 533.504 412.264C533.754 412.703 534.098 413.05 534.537 413.305C534.975 413.557 535.474 413.683 536.033 413.683Z" fill="black"/>
<path opacity="0.8" d="M535.689 372.284V381.093H536.756V373.402H536.808L538.958 374.83V373.746L536.756 372.284H535.689ZM530.282 381.214C530.93 381.214 531.482 381.037 531.938 380.685C532.394 380.329 532.743 379.814 532.984 379.14C533.225 378.464 533.345 377.646 533.345 376.689C533.345 375.737 533.225 374.924 532.984 374.25C532.74 373.573 532.39 373.057 531.934 372.701C531.475 372.343 530.925 372.163 530.282 372.163C529.64 372.163 529.091 372.343 528.635 372.701C528.176 373.057 527.826 373.573 527.585 374.25C527.342 374.924 527.22 375.737 527.22 376.689C527.22 377.646 527.34 378.464 527.581 379.14C527.822 379.814 528.17 380.329 528.626 380.685C529.082 381.037 529.634 381.214 530.282 381.214ZM530.282 380.267C529.64 380.267 529.141 379.958 528.785 379.338C528.43 378.719 528.252 377.836 528.252 376.689C528.252 375.926 528.334 375.276 528.497 374.74C528.658 374.204 528.89 373.795 529.194 373.514C529.495 373.233 529.858 373.093 530.282 373.093C530.919 373.093 531.417 373.407 531.775 374.035C532.133 374.66 532.313 375.544 532.313 376.689C532.313 377.451 532.232 378.099 532.072 378.633C531.911 379.166 531.68 379.572 531.379 379.85C531.075 380.128 530.71 380.267 530.282 380.267Z" fill="black"/>
<path opacity="0.8" d="M535.689 338.515V347.325H536.756V339.634H536.808L538.958 341.062V339.978L536.756 338.515H535.689ZM530.403 347.445C530.908 347.445 531.362 347.345 531.766 347.144C532.171 346.943 532.495 346.668 532.739 346.318C532.982 345.968 533.116 345.57 533.139 345.122H532.106C532.066 345.521 531.885 345.851 531.564 346.112C531.24 346.37 530.853 346.499 530.403 346.499C530.041 346.499 529.72 346.414 529.439 346.245C529.155 346.076 528.933 345.844 528.773 345.548C528.609 345.25 528.527 344.913 528.527 344.537C528.527 344.153 528.612 343.81 528.781 343.509C528.947 343.205 529.177 342.966 529.469 342.791C529.762 342.616 530.096 342.527 530.472 342.524C530.741 342.521 531.018 342.563 531.302 342.649C531.586 342.732 531.819 342.84 532.003 342.972L533.001 342.851L532.468 338.515H527.891V339.462H531.573L531.883 342.06H531.831C531.65 341.916 531.424 341.797 531.151 341.703C530.879 341.608 530.595 341.561 530.3 341.561C529.76 341.561 529.28 341.69 528.859 341.948C528.434 342.203 528.102 342.553 527.861 342.997C527.617 343.442 527.495 343.949 527.495 344.52C527.495 345.082 527.621 345.584 527.874 346.026C528.123 346.464 528.467 346.811 528.906 347.067C529.345 347.319 529.844 347.445 530.403 347.445Z" fill="black"/>
<path opacity="0.8" d="M445.131 494.683C445.779 494.683 446.331 494.507 446.787 494.154C447.243 493.799 447.591 493.284 447.832 492.61C448.073 491.933 448.193 491.116 448.193 490.158C448.193 489.206 448.073 488.393 447.832 487.719C447.588 487.043 447.238 486.526 446.783 486.171C446.324 485.812 445.773 485.633 445.131 485.633C444.488 485.633 443.939 485.812 443.483 486.171C443.024 486.526 442.675 487.043 442.434 487.719C442.19 488.393 442.068 489.206 442.068 490.158C442.068 491.116 442.189 491.933 442.429 492.61C442.67 493.284 443.019 493.799 443.475 494.154C443.931 494.507 444.483 494.683 445.131 494.683ZM445.131 493.737C444.488 493.737 443.989 493.427 443.634 492.808C443.278 492.189 443.1 491.305 443.1 490.158C443.1 489.396 443.182 488.746 443.346 488.21C443.506 487.673 443.739 487.265 444.042 486.984C444.344 486.703 444.706 486.562 445.131 486.562C445.767 486.562 446.265 486.876 446.623 487.504C446.982 488.129 447.161 489.014 447.161 490.158C447.161 490.921 447.081 491.569 446.92 492.103C446.76 492.636 446.529 493.042 446.228 493.32C445.924 493.598 445.558 493.737 445.131 493.737ZM440.434 494.563V493.789L437.526 490.606C437.185 490.233 436.903 489.909 436.683 489.634C436.462 489.355 436.298 489.094 436.192 488.851C436.083 488.604 436.029 488.346 436.029 488.076C436.029 487.767 436.103 487.499 436.253 487.272C436.399 487.045 436.6 486.871 436.855 486.747C437.11 486.624 437.397 486.562 437.715 486.562C438.053 486.562 438.349 486.633 438.601 486.773C438.851 486.911 439.044 487.104 439.182 487.354C439.317 487.603 439.384 487.896 439.384 488.231H440.399C440.399 487.715 440.28 487.262 440.042 486.872C439.804 486.482 439.48 486.178 439.07 485.96C438.657 485.742 438.194 485.633 437.681 485.633C437.164 485.633 436.707 485.742 436.308 485.96C435.91 486.178 435.597 486.472 435.371 486.842C435.144 487.212 435.031 487.623 435.031 488.076C435.031 488.4 435.09 488.717 435.207 489.027C435.322 489.334 435.523 489.677 435.809 490.055C436.093 490.431 436.488 490.89 436.992 491.432L438.971 493.548V493.617H434.876V494.563H440.434Z" fill="black"/>
<path opacity="0.8" d="M399.425 499.824C400.073 499.824 400.625 499.648 401.081 499.295C401.537 498.939 401.885 498.425 402.126 497.751C402.367 497.074 402.487 496.257 402.487 495.299C402.487 494.347 402.367 493.534 402.126 492.86C401.882 492.183 401.532 491.667 401.076 491.311C400.618 490.953 400.067 490.774 399.425 490.774C398.782 490.774 398.233 490.953 397.777 491.311C397.318 491.667 396.969 492.183 396.728 492.86C396.484 493.534 396.362 494.347 396.362 495.299C396.362 496.257 396.482 497.074 396.723 497.751C396.964 498.425 397.313 498.939 397.769 499.295C398.225 499.648 398.777 499.824 399.425 499.824ZM399.425 498.878C398.782 498.878 398.283 498.568 397.928 497.949C397.572 497.329 397.394 496.446 397.394 495.299C397.394 494.536 397.476 493.887 397.64 493.35C397.8 492.814 398.032 492.405 398.336 492.124C398.638 491.843 399 491.703 399.425 491.703C400.061 491.703 400.559 492.017 400.917 492.645C401.276 493.27 401.455 494.155 401.455 495.299C401.455 496.062 401.375 496.71 401.214 497.243C401.054 497.777 400.823 498.182 400.522 498.46C400.218 498.739 399.852 498.878 399.425 498.878ZM391.751 499.824C392.319 499.824 392.825 499.727 393.269 499.532C393.711 499.337 394.062 499.066 394.323 498.719C394.581 498.369 394.722 497.963 394.745 497.501H393.661C393.638 497.785 393.54 498.03 393.368 498.237C393.196 498.44 392.971 498.598 392.693 498.71C392.415 498.822 392.106 498.878 391.768 498.878C391.39 498.878 391.054 498.812 390.762 498.68C390.469 498.548 390.24 498.364 390.073 498.129C389.907 497.894 389.824 497.622 389.824 497.312C389.824 496.988 389.904 496.703 390.065 496.456C390.225 496.207 390.46 496.012 390.77 495.871C391.08 495.731 391.458 495.66 391.906 495.66H392.611V494.714H391.906C391.556 494.714 391.249 494.651 390.985 494.525C390.719 494.398 390.511 494.221 390.362 493.991C390.21 493.762 390.134 493.492 390.134 493.183C390.134 492.884 390.2 492.625 390.331 492.404C390.463 492.183 390.65 492.011 390.891 491.888C391.129 491.765 391.41 491.703 391.734 491.703C392.038 491.703 392.324 491.759 392.594 491.871C392.861 491.98 393.079 492.139 393.248 492.348C393.417 492.555 393.509 492.804 393.523 493.097H394.555C394.538 492.635 394.399 492.231 394.138 491.884C393.877 491.534 393.536 491.261 393.114 491.066C392.69 490.871 392.224 490.774 391.716 490.774C391.172 490.774 390.704 490.884 390.314 491.105C389.924 491.323 389.625 491.611 389.415 491.97C389.206 492.328 389.101 492.715 389.101 493.131C389.101 493.627 389.232 494.05 389.493 494.4C389.751 494.75 390.102 494.992 390.546 495.127V495.196C389.99 495.287 389.556 495.524 389.243 495.905C388.931 496.284 388.774 496.753 388.774 497.312C388.774 497.791 388.905 498.221 389.166 498.602C389.424 498.981 389.777 499.279 390.224 499.497C390.671 499.715 391.18 499.824 391.751 499.824Z" fill="black"/>
<path opacity="0.8" d="M359.005 498.658C359.653 498.658 360.205 498.482 360.661 498.129C361.117 497.773 361.465 497.259 361.706 496.585C361.947 495.908 362.067 495.091 362.067 494.133C362.067 493.181 361.947 492.368 361.706 491.694C361.462 491.017 361.112 490.501 360.657 490.145C360.198 489.787 359.647 489.608 359.005 489.608C358.362 489.608 357.813 489.787 357.357 490.145C356.898 490.501 356.549 491.017 356.308 491.694C356.064 492.368 355.942 493.181 355.942 494.133C355.942 495.091 356.063 495.908 356.303 496.585C356.544 497.259 356.893 497.773 357.349 498.129C357.805 498.482 358.357 498.658 359.005 498.658ZM359.005 497.712C358.362 497.712 357.863 497.402 357.508 496.783C357.152 496.163 356.974 495.28 356.974 494.133C356.974 493.37 357.056 492.721 357.22 492.184C357.38 491.648 357.613 491.239 357.917 490.958C358.218 490.677 358.58 490.537 359.005 490.537C359.641 490.537 360.139 490.851 360.497 491.479C360.856 492.104 361.035 492.989 361.035 494.133C361.035 494.896 360.955 495.544 360.794 496.077C360.634 496.611 360.403 497.016 360.102 497.294C359.798 497.573 359.432 497.712 359.005 497.712ZM354.514 496.731V495.853L350.643 489.728H350.006V491.087H350.436L353.361 495.716V495.785H348.148V496.731H354.514ZM350.367 498.538V496.464V496.056V489.728H349.352V498.538H350.367Z" fill="black"/>
<path opacity="0.8" d="M314.854 496.547C315.502 496.547 316.054 496.37 316.51 496.018C316.966 495.662 317.315 495.147 317.556 494.473C317.797 493.797 317.917 492.979 317.917 492.022C317.917 491.07 317.797 490.257 317.556 489.583C317.312 488.906 316.962 488.39 316.506 488.034C316.047 487.676 315.497 487.496 314.854 487.496C314.212 487.496 313.663 487.676 313.207 488.034C312.748 488.39 312.398 488.906 312.157 489.583C311.914 490.257 311.792 491.07 311.792 492.022C311.792 492.979 311.912 493.797 312.153 494.473C312.394 495.147 312.742 495.662 313.198 496.018C313.654 496.37 314.206 496.547 314.854 496.547ZM314.854 495.6C314.212 495.6 313.713 495.291 313.357 494.671C313.002 494.052 312.824 493.169 312.824 492.022C312.824 491.259 312.906 490.609 313.069 490.073C313.23 489.537 313.462 489.128 313.766 488.847C314.067 488.566 314.43 488.426 314.854 488.426C315.491 488.426 315.989 488.74 316.347 489.368C316.705 489.993 316.885 490.877 316.885 492.022C316.885 492.784 316.804 493.432 316.644 493.966C316.483 494.499 316.252 494.905 315.951 495.183C315.647 495.461 315.282 495.6 314.854 495.6ZM307.404 496.547C307.909 496.547 308.363 496.446 308.768 496.246C309.172 496.045 309.496 495.77 309.74 495.42C309.984 495.07 310.117 494.671 310.14 494.224H309.108C309.067 494.623 308.887 494.952 308.566 495.213C308.242 495.471 307.854 495.6 307.404 495.6C307.043 495.6 306.722 495.516 306.441 495.347C306.157 495.177 305.935 494.945 305.774 494.65C305.611 494.352 305.529 494.015 305.529 493.639C305.529 493.255 305.613 492.912 305.783 492.611C305.949 492.307 306.178 492.067 306.471 491.893C306.763 491.718 307.097 491.629 307.473 491.626C307.743 491.623 308.019 491.665 308.303 491.751C308.587 491.834 308.821 491.941 309.004 492.073L310.002 491.953L309.469 487.617H304.892V488.563H308.574L308.884 491.161H308.832C308.652 491.018 308.425 490.899 308.153 490.804C307.88 490.71 307.596 490.662 307.301 490.662C306.762 490.662 306.282 490.791 305.86 491.049C305.436 491.305 305.103 491.655 304.862 492.099C304.618 492.543 304.496 493.051 304.496 493.622C304.496 494.184 304.623 494.686 304.875 495.127C305.124 495.566 305.469 495.913 305.907 496.168C306.346 496.421 306.845 496.547 307.404 496.547Z" fill="black"/>
</g>
<g opacity="0.8">
<g opacity="0.8">
<path opacity="0.8" d="M516.8 454.4C516.8 454.4 343.2 459.8 288 439.8" stroke="#B7B4DA" stroke-width="0.5" stroke-miterlimit="10" stroke-linecap="round" stroke-linejoin="round" stroke-dasharray="6 6"/>
<path opacity="0.8" d="M516.8 417.7C516.8 417.7 343.2 423.1 288 403.1" stroke="#B7B4DA" stroke-width="0.5" stroke-miterlimit="10" stroke-linecap="round" stroke-linejoin="round" stroke-dasharray="6 6"/>
<path opacity="0.8" d="M516.8 380.5C516.8 380.5 343.2 385.9 288 365.9" stroke="#B7B4DA" stroke-width="0.5" stroke-miterlimit="10" stroke-linecap="round" stroke-linejoin="round" stroke-dasharray="6 6"/>
</g>
<path opacity="0.8" d="M493.9 361V453.8C493.9 453.8 475.7 456.5 475.7 453.8C475.7 451.1 475.7 361 475.7 361C475.7 361 484.1 357.2 493.9 361Z" fill="#EEEEF7" stroke="black" stroke-width="0.75" stroke-miterlimit="10" stroke-linecap="round" stroke-linejoin="round"/>
<path opacity="0.8" d="M450.9 419V454.6C450.9 454.6 432.7 455.6 432.7 454.6C432.7 453.6 432.7 419 432.7 419C432.7 419 441.1 417.5 450.9 419Z" fill="#EEEEF7" stroke="black" stroke-width="0.75" stroke-miterlimit="10" stroke-linecap="round" stroke-linejoin="round"/>
<path opacity="0.8" d="M407.8 368.1V452.7C407.8 452.7 389.6 455.2 389.6 452.7C389.6 450.2 389.6 368.1 389.6 368.1C389.6 368.1 398 364.6 407.8 368.1Z" fill="#5C58A6" stroke="black" stroke-miterlimit="10"/>
<path opacity="0.8" d="M364.8 381.2V449.8C364.8 449.8 346.6 451.8 346.6 449.8C346.6 447.8 346.6 381.2 346.6 381.2C346.6 381.2 355 378.4 364.8 381.2Z" fill="#EEEEF7" stroke="black" stroke-width="0.75" stroke-miterlimit="10" stroke-linecap="round" stroke-linejoin="round"/>
<path opacity="0.8" d="M323.1 431.3V447.4C323.1 447.4 304.9 445.6 304.9 445.2C304.9 444.8 304.9 431.3 304.9 431.3C304.9 431.3 313.3 430.7 323.1 431.3Z" fill="#EEEEF7" stroke="black" stroke-width="0.75" stroke-miterlimit="10" stroke-linecap="round" stroke-linejoin="round"/>
<g opacity="0.8">
<path opacity="0.8" d="M434.1 336.6C434.1 336.6 434 344.2 428.3 349.1C423.5 353.2 406.1 350 406 350.4L400.4 359.7L396 350.3C396 350.3 378.3 350.4 375.9 349.1C373.5 347.8 368.5 336.2 371.9 334.5C375.1 332.7 430.8 332.4 434.1 336.6Z" fill="#C7C3E2" stroke="black" stroke-width="0.75" stroke-miterlimit="10" stroke-linecap="round" stroke-linejoin="round"/>
<path opacity="0.8" d="M420.561 343.275V342.532L417.286 337.349H416.747V338.5H417.111L419.586 342.416V342.474H415.175V343.275H420.561ZM417.053 344.803V343.049V342.703V337.349H416.194V344.803H417.053ZM411.379 344.905C411.928 344.905 412.395 344.756 412.781 344.458C413.166 344.157 413.461 343.721 413.665 343.151C413.869 342.578 413.971 341.887 413.971 341.076C413.971 340.271 413.869 339.583 413.665 339.013C413.459 338.44 413.163 338.003 412.777 337.702C412.389 337.399 411.923 337.248 411.379 337.248C410.836 337.248 410.371 337.399 409.985 337.702C409.597 338.003 409.301 338.44 409.097 339.013C408.891 339.583 408.788 340.271 408.788 341.076C408.788 341.887 408.89 342.578 409.094 343.151C409.298 343.721 409.592 344.157 409.978 344.458C410.364 344.756 410.831 344.905 411.379 344.905ZM411.379 344.105C410.836 344.105 410.414 343.843 410.113 343.318C409.812 342.794 409.661 342.047 409.661 341.076C409.661 340.431 409.731 339.881 409.869 339.428C410.005 338.974 410.201 338.628 410.459 338.39C410.713 338.153 411.02 338.034 411.379 338.034C411.918 338.034 412.339 338.299 412.642 338.831C412.946 339.36 413.097 340.108 413.097 341.076C413.097 341.722 413.029 342.27 412.894 342.722C412.758 343.173 412.562 343.516 412.308 343.752C412.05 343.987 411.741 344.105 411.379 344.105ZM403.707 342.765L403.722 341.702H403.547L401.101 339.213H400.038L402.644 341.848H402.717L403.707 342.765ZM404.508 344.803V337.349H403.649V344.803H404.508ZM400.955 344.803L403.139 342.037L402.528 341.44L399.864 344.803H400.955ZM397.462 344.803L399.5 337.349H398.583L397.025 343.42H396.953L395.366 337.349H394.347L392.76 343.42H392.687L391.129 337.349H390.212L392.25 344.803H393.182L394.827 338.864H394.885L396.53 344.803H397.462ZM388.345 341.44V344.803H389.204V337.349H388.345V340.086H388.272C388.141 339.798 387.945 339.568 387.682 339.399C387.418 339.226 387.066 339.14 386.627 339.14C386.246 339.14 385.912 339.217 385.626 339.369C385.34 339.52 385.118 339.752 384.96 340.065C384.8 340.375 384.72 340.771 384.72 341.251V344.803H385.579V341.309C385.579 340.865 385.694 340.522 385.924 340.279C386.153 340.034 386.469 339.912 386.874 339.912C387.156 339.912 387.408 339.971 387.631 340.09C387.852 340.209 388.027 340.382 388.156 340.611C388.282 340.839 388.345 341.115 388.345 341.44Z" fill="black"/>
</g>
</g>
</g>
</g>
</g>
</g>
<defs>
<filter id="filter0_d_2_379" x="0.565063" y="0.036377" width="678.816" height="529.044" filterUnits="userSpaceOnUse" color-interpolation-filters="sRGB">
<feFlood flood-opacity="0" result="BackgroundImageFix"/>
<feColorMatrix in="SourceAlpha" type="matrix" values="0 0 0 0 0 0 0 0 0 0 0 0 0 0 0 0 0 0 127 0" result="hardAlpha"/>
<feOffset dy="4"/>
<feGaussianBlur stdDeviation="2"/>
<feComposite in2="hardAlpha" operator="out"/>
<feColorMatrix type="matrix" values="0 0 0 0 0 0 0 0 0 0 0 0 0 0 0 0 0 0 0.25 0"/>
<feBlend mode="normal" in2="BackgroundImageFix" result="effect1_dropShadow_2_379"/>
<feBlend mode="normal" in="SourceGraphic" in2="effect1_dropShadow_2_379" result="shape"/>
</filter>
</defs>
</svg>
