<svg width="457" height="415" viewBox="0 0 457 415" fill="none" xmlns="http://www.w3.org/2000/svg">
<g clip-path="url(#clip0_305_258)">
<path opacity="0.15" d="M353.567 320.227C324.371 340.681 286.299 355.216 251.12 342.852C218.702 331.408 200.883 298.524 172.148 281.292C134.996 259.063 87.389 267.547 46.7521 253.078C29.59 246.961 13.6114 236.504 2.63025 221.772C-8.35093 207.04 -14.0059 187.835 -10.8496 169.617C-6.181 142.718 16.4389 120.554 16.5046 93.1942C16.5704 80.6324 11.6387 68.3994 11.9018 55.7719C12.4936 28.2806 38.2039 6.8401 64.7691 1.90742C94.4248 -3.61714 134.799 3.94625 161.167 18.6126C188.323 33.6736 218.111 47.8139 249.805 45.5778C277.948 43.6047 304.513 28.8726 332.657 29.7276C351.068 30.3195 368.625 37.554 384.735 46.4986C399.004 54.4566 413.01 64.3876 421.098 78.7251C436.879 106.94 425.503 142.455 430.369 174.55C433.394 194.346 442.665 214.471 436.682 233.544C433.131 244.791 424.78 253.735 416.626 262.22C398.609 281.029 380.527 299.839 359.879 315.624C357.841 317.202 355.737 318.715 353.567 320.227Z" fill="#CDBFDE"/>
<path d="M224.423 344.43H95.2137C84.5613 344.43 75.6186 337.722 74.6323 328.909L56.8126 170.012C55.6947 160.015 65.2292 151.399 77.394 151.399H235.667C247.569 151.399 257.038 159.686 256.314 169.486L245.005 328.383C244.413 337.327 235.404 344.43 224.423 344.43Z" fill="#A5A4A4" stroke="black" stroke-miterlimit="10"/>
<path d="M104.157 353.177C104.157 353.177 98.962 404.74 104.157 409.804C109.351 414.868 161.232 413.619 161.232 413.619L163.534 387.903C163.534 387.903 162.087 413.356 163.073 413.75C164.06 414.145 224.226 415.855 224.029 411.711C223.831 407.568 220.281 350.678 220.281 350.678L104.157 353.177Z" fill="#E2E2E2" stroke="black" stroke-miterlimit="10" stroke-linecap="round" stroke-linejoin="round"/>
<path d="M133.681 156.135C133.681 156.135 191.48 153.044 194.965 158.239C198.45 163.435 190.822 348.048 190.822 348.048H147.358L133.681 156.135Z" fill="white" stroke="black" stroke-miterlimit="10" stroke-linecap="round" stroke-linejoin="round"/>
<path d="M104.156 341.405V353.638C104.156 353.638 213.639 355.085 218.9 351.796C224.16 348.442 221.004 341.405 221.004 341.405H104.156Z" fill="#3A3A3A" stroke="black" stroke-miterlimit="10" stroke-linecap="round" stroke-linejoin="round"/>
<path d="M173.463 150.347C173.463 150.347 169.518 399.807 175.304 408.686C181.09 417.565 219.294 408.686 225.87 397.571C232.445 386.456 221.07 289.645 221.07 289.645L223.7 166.658C223.7 166.658 174.909 148.769 173.463 150.347Z" fill="#5C58A6" stroke="black" stroke-miterlimit="10" stroke-linecap="round" stroke-linejoin="round"/>
<path d="M140.914 138.246C140.914 138.246 140.388 151.531 138.547 155.28C138.547 155.28 161.824 183.955 178.131 150.347C178.131 150.347 173.528 148.308 172.871 136.799C172.082 122.987 140.914 138.246 140.914 138.246Z" fill="white" stroke="black" stroke-miterlimit="10" stroke-linecap="round" stroke-linejoin="round"/>
<path d="M121.45 156.332C121.45 156.332 131.576 147.585 134.864 145.809C138.152 144.033 144.004 166.658 144.004 166.658C144.004 166.658 156.169 403.491 152.487 411.646C148.804 419.801 89.0327 408.686 84.3641 399.807C79.6955 390.929 86.9286 297.735 86.9286 297.735" fill="#5C58A6"/>
<path d="M121.45 156.332C121.45 156.332 131.576 147.585 134.864 145.809C138.152 144.033 144.004 166.658 144.004 166.658C144.004 166.658 156.169 403.491 152.487 411.646C148.804 419.801 89.0327 408.686 84.3641 399.807C79.6955 390.929 86.9286 297.735 86.9286 297.735" stroke="black" stroke-miterlimit="10" stroke-linecap="round" stroke-linejoin="round"/>
<path d="M155.314 180.403L145.122 320.951L161.232 350.678L175.764 319.833L162.942 180.403H155.314Z" fill="#EEDBEB" stroke="black" stroke-miterlimit="10" stroke-linecap="round" stroke-linejoin="round"/>
<path d="M146.174 171.261L156.629 181.719C158.01 183.1 160.246 183.1 161.693 181.719L172.148 171.261C174.383 169.025 172.805 165.211 169.649 165.211H148.804C145.517 165.211 143.939 169.025 146.174 171.261Z" fill="#EEDBEB" stroke="black" stroke-miterlimit="10" stroke-linecap="round" stroke-linejoin="round"/>
<path d="M163.928 175.471C163.928 175.471 163.797 176.918 161.232 178.036L163.928 175.471Z" fill="#EEDBEB"/>
<path d="M163.928 175.471C163.928 175.471 163.797 176.918 161.232 178.036" stroke="black" stroke-miterlimit="10" stroke-linecap="round" stroke-linejoin="round"/>
<path d="M167.873 321.937C167.873 321.937 164.717 336.275 163.008 339.169L167.873 321.937Z" fill="#EEDBEB"/>
<path d="M167.873 321.937C167.873 321.937 164.717 336.275 163.008 339.169" stroke="black" stroke-miterlimit="10" stroke-linecap="round" stroke-linejoin="round"/>
<path d="M176.948 282.476C177.211 282.476 177.54 282.542 177.737 282.739C177.934 283.002 177.803 283.266 177.737 283.529C176.619 285.962 174.778 288.198 172.542 289.908C180.63 289.711 188.784 289.974 196.872 290.763C197.727 290.829 198.581 290.96 199.305 291.355C200.028 291.75 200.554 292.605 200.16 293.262C199.897 293.723 199.371 293.92 198.844 294.117C192.861 296.156 186.022 295.893 179.447 295.564C188.258 295.762 197.069 295.893 205.88 297.274C206.998 297.472 208.445 297.932 208.379 298.918C208.379 299.839 207.064 300.168 206.012 300.234C197.529 300.957 188.981 301.418 180.433 301.615C184.444 302.338 188.455 302.338 192.466 302.799C196.477 303.259 200.62 304.246 203.776 306.548C204.368 307.008 205.025 307.534 205.223 308.192C205.486 308.85 205.223 309.639 204.499 309.902C204.236 309.968 203.908 309.968 203.579 309.968C194.965 309.705 186.351 308.521 177.934 306.416C181.945 307.008 185.891 308.06 189.836 309.113C191.217 309.507 192.861 310.033 193.255 311.283C193.584 312.204 192.992 313.124 192.072 313.651C191.217 314.177 190.099 314.308 189.047 314.374C182.406 314.9 175.501 313.585 169.452 310.691C166.23 309.178 163.271 307.205 159.917 305.956C157.221 304.969 154.131 304.377 152.29 302.338C148.476 298.063 152.947 289.579 157.945 287.869C160.838 286.883 164.257 287.212 167.282 286.291C170.372 285.37 173.266 282.279 176.948 282.476Z" fill="white" stroke="black" stroke-miterlimit="10" stroke-linecap="round" stroke-linejoin="round"/>
<path d="M152.881 282.41L159.062 283.792C159.062 283.792 155.972 306.482 153.802 307.863C151.632 309.244 143.347 303.259 143.347 303.259L150.58 281.884L152.881 282.41Z" fill="white" stroke="black" stroke-miterlimit="10" stroke-linecap="round" stroke-linejoin="round"/>
<path d="M151.632 305.956C152.177 305.956 152.618 305.514 152.618 304.969C152.618 304.425 152.177 303.983 151.632 303.983C151.088 303.983 150.646 304.425 150.646 304.969C150.646 305.514 151.088 305.956 151.632 305.956Z" fill="black"/>
<path d="M124.278 154.49C124.278 154.49 76.868 176.391 76.7365 184.481C76.6707 188.23 69.9637 301.615 72.5282 305.693C75.1584 309.77 142.295 316.873 144.728 315.163C147.161 313.519 146.437 300.234 159.062 285.107C161.232 282.542 109.746 271.624 109.746 271.624C109.746 271.624 111.784 235.386 114.02 212.827" fill="#5C58A6"/>
<path d="M124.278 154.49C124.278 154.49 76.868 176.391 76.7365 184.481C76.6707 188.23 69.9637 301.615 72.5282 305.693C75.1584 309.77 142.295 316.873 144.728 315.163C147.161 313.519 146.437 300.234 159.062 285.107C161.232 282.542 109.746 271.624 109.746 271.624C109.746 271.624 111.784 235.386 114.02 212.827" stroke="black" stroke-miterlimit="10" stroke-linecap="round" stroke-linejoin="round"/>
<path d="M184.51 151.728C184.51 151.728 232.643 161.922 237.246 170.801C241.848 179.68 261.97 267.349 268.151 272.348C274.332 277.346 291.823 297.34 291.823 297.34C291.823 297.34 252.698 325.094 246.517 316.742C240.336 308.389 217.716 277.346 213.048 240.713" fill="#5C58A6"/>
<path d="M184.51 151.728C184.51 151.728 232.643 161.922 237.246 170.801C241.848 179.68 261.97 267.349 268.151 272.348C274.332 277.346 291.823 297.34 291.823 297.34C291.823 297.34 252.698 325.094 246.517 316.742C240.336 308.389 217.716 277.346 213.048 240.713" stroke="black" stroke-miterlimit="10" stroke-linecap="round" stroke-linejoin="round"/>
<path d="M248.029 249.723C248.029 249.723 250.988 258.536 254.671 265.574L248.029 249.723Z" fill="#5C58A6"/>
<path d="M248.029 249.723C248.029 249.723 250.988 258.536 254.671 265.574" stroke="black" stroke-miterlimit="10" stroke-linecap="round" stroke-linejoin="round"/>
<path d="M89.1644 191.124C89.1644 191.124 84.693 201.12 88.441 206.119L89.1644 191.124Z" fill="#5C58A6"/>
<path d="M89.1644 191.124C89.1644 191.124 84.693 201.12 88.441 206.119" stroke="black" stroke-miterlimit="10" stroke-linecap="round" stroke-linejoin="round"/>
<path d="M191.085 210.591L187.14 264.653" stroke="black" stroke-miterlimit="10" stroke-linecap="round" stroke-linejoin="round"/>
<path d="M135.785 198.358L141.243 271.624" stroke="black" stroke-miterlimit="10" stroke-linecap="round" stroke-linejoin="round"/>
<path d="M138.678 141.074C138.678 141.074 122.437 152.255 122.831 156.135C123.226 160.016 136.574 192.242 136.574 192.242C136.574 192.242 146.7 168.697 148.541 166.658C150.317 164.62 138.678 141.074 138.678 141.074Z" fill="#53549B" stroke="black" stroke-miterlimit="10" stroke-linecap="round" stroke-linejoin="round"/>
<path d="M173.857 143.376C173.857 143.376 175.961 153.965 167.282 164.028C167.282 164.028 173.265 180.732 178.131 192.177C178.131 192.177 191.94 166.658 192.269 161.462C192.532 156.332 173.857 143.376 173.857 143.376Z" fill="#53549B" stroke="black" stroke-miterlimit="10" stroke-linecap="round" stroke-linejoin="round"/>
<path d="M136.837 180.403C136.837 180.403 135.982 182.376 136.442 185.139L136.837 180.403Z" fill="#53549B"/>
<path d="M136.837 180.403C136.837 180.403 135.982 182.376 136.442 185.139" stroke="black" stroke-miterlimit="10" stroke-linecap="round" stroke-linejoin="round"/>
<path d="M177.54 182.771C177.54 182.771 178.723 184.613 178.657 186.257L177.54 182.771Z" fill="#53549B"/>
<path d="M177.54 182.771C177.54 182.771 178.723 184.613 178.657 186.257" stroke="black" stroke-miterlimit="10" stroke-linecap="round" stroke-linejoin="round"/>
<path d="M113.296 101.218C113.296 101.218 103.302 75.634 102.381 38.2118C101.395 -1.97283 132.234 61.6254 132.234 61.6254C132.234 61.6254 122.963 74.0555 119.149 74.9105L113.296 101.218Z" fill="#3A3A3A" stroke="black" stroke-miterlimit="10" stroke-linecap="round" stroke-linejoin="round"/>
<path d="M132.234 61.6252C132.234 61.6252 111.784 37.9485 113.034 25.3867C114.283 12.8249 177.868 17.2314 184.51 12.5618C191.151 7.89227 187.008 20.9145 187.008 20.9145L191.019 17.9549C191.019 17.9549 195.622 17.6918 193.387 30.7797C191.151 43.8677 195.622 33.7393 195.622 33.7393C195.622 33.7393 201.409 34.7916 198.844 51.9572C195.491 74.1212 189.704 75.3708 189.704 75.3708C189.704 75.3708 184.51 77.4096 178.592 70.8328C172.674 64.256 156.301 81.4873 132.234 61.6252Z" fill="#3A3A3A" stroke="black" stroke-miterlimit="10" stroke-linecap="round" stroke-linejoin="round"/>
<path d="M192.795 37.3568C192.795 37.3568 191.611 60.1785 175.83 66.6237L192.795 37.3568Z" fill="#3A3A3A"/>
<path d="M192.795 37.3568C192.795 37.3568 191.611 60.1785 175.83 66.6237" stroke="black" stroke-miterlimit="10" stroke-linecap="round" stroke-linejoin="round"/>
<path d="M187.008 20.9801C187.008 20.9801 184.97 38.2773 179.249 43.6703C179.249 43.6703 178.328 66.2948 164.651 69.5832" fill="#3A3A3A"/>
<path d="M187.008 20.9801C187.008 20.9801 184.97 38.2773 179.249 43.6703C179.249 43.6703 178.328 66.2948 164.651 69.5832" stroke="black" stroke-miterlimit="10" stroke-linecap="round" stroke-linejoin="round"/>
<path d="M184.51 12.5619C184.51 12.5619 180.564 34.989 171.424 40.9082C171.424 40.9082 165.177 68.0705 148.476 68.9255" fill="#3A3A3A"/>
<path d="M184.51 12.5619C184.51 12.5619 180.564 34.989 171.424 40.9082C171.424 40.9082 165.177 68.0705 148.476 68.9255" stroke="black" stroke-miterlimit="10" stroke-linecap="round" stroke-linejoin="round"/>
<path d="M175.764 14.4033C175.764 14.4033 173.66 30.0563 162.547 37.3566C162.547 37.3566 155.314 64.9794 142.032 66.9525" fill="#3A3A3A"/>
<path d="M175.764 14.4033C175.764 14.4033 173.66 30.0563 162.547 37.3566C162.547 37.3566 155.314 64.9794 142.032 66.9525" stroke="black" stroke-miterlimit="10" stroke-linecap="round" stroke-linejoin="round"/>
<path d="M132.234 61.6253C132.234 61.6253 149.988 53.0096 151.961 36.2386C151.961 36.2386 167.742 21.2433 163.271 15.1926" fill="#3A3A3A"/>
<path d="M132.234 61.6253C132.234 61.6253 149.988 53.0096 151.961 36.2386C151.961 36.2386 167.742 21.2433 163.271 15.1926" stroke="black" stroke-miterlimit="10" stroke-linecap="round" stroke-linejoin="round"/>
<path d="M151.961 15.7186C153.473 32.1608 126.513 54.3906 126.513 54.3906C126.513 54.3906 124.08 64.3216 117.308 68.9255C117.308 68.9255 116.65 67.4128 110.798 93.3257" stroke="black" stroke-miterlimit="10" stroke-linecap="round" stroke-linejoin="round"/>
<path d="M144.596 16.245C142.032 27.3599 122.437 48.5374 122.437 48.5374C122.437 48.5374 108.628 66.7552 108.957 87.4723" stroke="black" stroke-miterlimit="10" stroke-linecap="round" stroke-linejoin="round"/>
<path d="M136.377 16.8368C125.461 26.0444 118.82 42.8812 118.82 42.8812C118.82 42.8812 107.181 48.0111 104.814 66.3605" stroke="black" stroke-miterlimit="10" stroke-linecap="round" stroke-linejoin="round"/>
<path d="M114.48 33.8051C114.48 33.8051 103.828 32.161 103.959 60.1783" stroke="black" stroke-miterlimit="10" stroke-linecap="round" stroke-linejoin="round"/>
<path d="M182.274 72.2797C182.274 72.2797 195.491 67.347 199.37 47.0245" stroke="black" stroke-miterlimit="10" stroke-linecap="round" stroke-linejoin="round"/>
<path d="M190.296 86.8804C190.296 86.8804 208.773 62.4145 199.633 48.6688C199.633 48.6688 190.888 68.2021 182.274 72.214C182.274 72.214 186.482 76.1601 189.77 77.1466L190.296 86.8804Z" fill="#3A3A3A" stroke="black" stroke-miterlimit="10" stroke-linecap="round" stroke-linejoin="round"/>
<path d="M112.902 96.4168C112.902 96.4168 107.181 92.7338 108.299 101.349C109.417 109.965 114.612 116.279 117.702 112.004" fill="white"/>
<path d="M112.902 96.4168C112.902 96.4168 107.181 92.7338 108.299 101.349C109.417 109.965 114.612 116.279 117.702 112.004" stroke="black" stroke-miterlimit="10" stroke-linecap="round" stroke-linejoin="round"/>
<path d="M189.704 87.275C189.704 87.275 194.833 82.8027 194.965 91.4842C195.096 100.166 190.888 107.137 187.14 103.388" fill="white"/>
<path d="M189.704 87.275C189.704 87.275 194.833 82.8027 194.965 91.4842C195.096 100.166 190.888 107.137 187.14 103.388" stroke="black" stroke-miterlimit="10" stroke-linecap="round" stroke-linejoin="round"/>
<path d="M113.033 100.363C113.033 100.363 120.332 123.119 124.738 129.235C129.209 135.352 159.062 151.86 161.824 150.216C164.586 148.571 183.655 134.694 190.296 120.291C190.296 120.291 191.874 96.4168 190.296 87.8011L189.704 75.5024C189.704 75.5024 178.592 72.0824 175.896 66.6236C175.896 66.6236 153.933 76.9493 132.234 61.6912C132.234 61.6912 125.067 72.5428 119.149 74.9762L113.033 100.363Z" fill="white" stroke="black" stroke-miterlimit="10"/>
<path d="M113.297 96.4826C116.453 101.284 129.407 121.804 133.747 124.04C138.481 126.473 147.161 124.697 153.539 118.384C160.443 111.478 169.254 115.687 172.937 118.384C176.619 121.08 181.222 121.277 186.088 114.043C192.335 104.769 190.625 88.4588 191.085 98.5214C190.954 100.823 190.822 104.572 190.757 106.874C190.493 109.439 191.085 115.161 191.02 118.449C190.954 125.355 186.154 130.025 182.011 135.22C179.184 138.772 175.962 141.994 172.345 144.625C170.504 146.006 168.531 147.256 166.493 148.308C164.849 149.163 162.613 150.742 160.706 150.676C158.931 150.61 156.827 149.558 155.117 149.032C153.079 148.308 151.04 147.519 149.068 146.664C145.057 144.954 141.177 142.981 137.495 140.811C132.76 137.983 127.894 134.694 124.409 130.419C124.015 129.959 123.554 129.104 123.357 128.512L120.069 119.502C118.557 115.358 117.045 111.281 115.532 107.137C114.743 104.967 113.954 102.862 113.165 100.692C112.902 100.034 112.245 96.4168 113.297 96.4826Z" fill="#3A3A3A" stroke="black" stroke-miterlimit="10" stroke-linecap="round" stroke-linejoin="round"/>
<path d="M152.815 123.316C152.815 123.316 162.021 117.2 169.583 122.198C169.583 122.198 168.794 127.131 161.758 124.566C161.758 124.566 156.892 128.643 152.815 123.316Z" fill="white" stroke="black" stroke-miterlimit="10" stroke-linecap="round" stroke-linejoin="round"/>
<path d="M166.493 87.2092C166.493 87.2092 165.572 84.3154 166.756 84.4469C168.005 84.5784 177.277 83.1315 180.564 87.3407C180.63 87.3407 168.531 83.4604 166.493 87.2092Z" fill="black" stroke="black" stroke-miterlimit="10" stroke-linecap="round" stroke-linejoin="round"/>
<path d="M147.752 89.3796C147.752 89.3796 148.673 86.4858 147.489 86.6173C146.24 86.7488 136.968 85.3019 133.681 89.5111C133.681 89.4454 145.78 85.565 147.752 89.3796Z" fill="black" stroke="black" stroke-miterlimit="10" stroke-linecap="round" stroke-linejoin="round"/>
<path d="M144.136 106.019C145.915 106.019 147.358 103.781 147.358 101.021C147.358 98.2603 145.915 96.0222 144.136 96.0222C142.356 96.0222 140.914 98.2603 140.914 101.021C140.914 103.781 142.356 106.019 144.136 106.019Z" fill="black" stroke="black" stroke-miterlimit="10" stroke-linecap="round" stroke-linejoin="round"/>
<path d="M172.871 104.506C174.65 104.506 176.093 102.269 176.093 99.5079C176.093 96.7476 174.65 94.5095 172.871 94.5095C171.092 94.5095 169.649 96.7476 169.649 99.5079C169.649 102.269 171.092 104.506 172.871 104.506Z" fill="black" stroke="black" stroke-miterlimit="10" stroke-linecap="round" stroke-linejoin="round"/>
<path d="M177.079 132.326C177.079 132.326 175.961 134.036 175.37 134.694L177.079 132.326Z" fill="#3A3A3A"/>
<path d="M177.079 132.326C177.079 132.326 175.961 134.036 175.37 134.694" stroke="black" stroke-miterlimit="10" stroke-linecap="round" stroke-linejoin="round"/>
<path d="M405.513 328.251C405.513 328.251 409.59 331.934 409.196 336.407" stroke="black" stroke-miterlimit="10" stroke-linecap="round" stroke-linejoin="round"/>
<path d="M419.256 344.43H-0.197266V334.105C-0.197266 326.936 5.58914 321.148 12.7565 321.148H406.105C413.404 321.148 419.256 327.067 419.256 334.302V344.43Z" fill="#3A3A3A" stroke="black" stroke-miterlimit="10" stroke-linecap="round" stroke-linejoin="round"/>
<path d="M244.807 312.927H169.057V317.334H244.807V312.927Z" fill="white" stroke="black" stroke-miterlimit="10" stroke-linecap="round" stroke-linejoin="round"/>
<path d="M166.295 312.927H158.076V317.334H166.295V312.927Z" fill="white" stroke="black" stroke-miterlimit="10" stroke-linecap="round" stroke-linejoin="round"/>
<path d="M155.314 312.927H147.095V317.334H155.314V312.927Z" fill="white" stroke="black" stroke-miterlimit="10" stroke-linecap="round" stroke-linejoin="round"/>
<path d="M144.333 312.927H136.114V317.334H144.333V312.927Z" fill="white" stroke="black" stroke-miterlimit="10" stroke-linecap="round" stroke-linejoin="round"/>
<path d="M133.286 312.927H125.067V317.334H133.286V312.927Z" fill="white" stroke="black" stroke-miterlimit="10" stroke-linecap="round" stroke-linejoin="round"/>
<path d="M288.863 312.927H280.644V317.334H288.863V312.927Z" fill="white" stroke="black" stroke-miterlimit="10" stroke-linecap="round" stroke-linejoin="round"/>
<path d="M277.882 312.927H269.663V317.334H277.882V312.927Z" fill="white" stroke="black" stroke-miterlimit="10" stroke-linecap="round" stroke-linejoin="round"/>
<path d="M266.901 312.927H258.682V317.334H266.901V312.927Z" fill="white" stroke="black" stroke-miterlimit="10" stroke-linecap="round" stroke-linejoin="round"/>
<path d="M310.892 312.796H302.672V317.202H310.892V312.796Z" fill="white" stroke="black" stroke-miterlimit="10" stroke-linecap="round" stroke-linejoin="round"/>
<path d="M299.845 312.796H291.625V317.202H299.845V312.796Z" fill="white" stroke="black" stroke-miterlimit="10" stroke-linecap="round" stroke-linejoin="round"/>
<path d="M255.854 312.927H247.635V317.334H255.854V312.927Z" fill="white" stroke="black" stroke-miterlimit="10" stroke-linecap="round" stroke-linejoin="round"/>
<path d="M319.834 321.28H117.308C116.256 321.28 115.467 320.425 115.467 319.438V316.347C115.467 315.295 116.321 314.505 117.308 314.505H319.834C320.886 314.505 321.675 315.36 321.675 316.347V319.438C321.741 320.49 320.886 321.28 319.834 321.28Z" fill="white" stroke="black" stroke-miterlimit="10" stroke-linecap="round" stroke-linejoin="round"/>
<path d="M303.724 307.666H130.787C124.475 307.666 119.346 302.536 119.346 296.222V190.006C119.346 183.692 124.475 178.562 130.787 178.562H303.658C309.971 178.562 315.1 183.692 315.1 190.006V296.222C315.166 302.536 310.037 307.666 303.724 307.666Z" fill="#E2E2E2" stroke="black" stroke-miterlimit="10"/>
<path d="M218.374 248.868C220.189 248.868 221.661 246.307 221.661 243.147C221.661 239.986 220.189 237.425 218.374 237.425C216.558 237.425 215.086 239.986 215.086 243.147C215.086 246.307 216.558 248.868 218.374 248.868Z" fill="white" stroke="black" stroke-miterlimit="10" stroke-linecap="round" stroke-linejoin="round"/>
<path d="M223.305 244.594C223.305 244.594 224.029 248.737 221.004 250.447" stroke="black" stroke-miterlimit="10" stroke-linecap="round" stroke-linejoin="round"/>
<path d="M234.155 321.148H203.053L206.538 285.699H230.933L234.155 321.148Z" fill="#E2E2E2" stroke="black" stroke-miterlimit="10"/>
<path d="M248.095 317.071H189.178V321.609H248.095V317.071Z" fill="#E2E2E2" stroke="black" stroke-miterlimit="10"/>
<path d="M55.7606 307.666C48.3303 307.666 42.2808 313.716 42.2808 321.148H68.6487V320.622C68.7144 313.453 62.928 307.666 55.7606 307.666Z" fill="#E2E2E2" stroke="black" stroke-miterlimit="10"/>
<path d="M56.747 307.731H54.6428V312.401H56.747V307.731Z" fill="#F4F4F5" stroke="black" stroke-width="0.5" stroke-miterlimit="10" stroke-linecap="round" stroke-linejoin="round"/>
<path d="M48.1328 310.033C48.1328 310.033 55.6947 319.307 63.2566 310.033" stroke="black" stroke-width="0.5" stroke-miterlimit="10" stroke-linecap="round" stroke-linejoin="round"/>
<path d="M54.6426 317.07C54.6426 317.07 50.6973 319.767 54.6426 319.372C58.588 318.912 71.8048 314.769 78.6434 317.07C85.4819 319.372 109.811 317.86 109.811 317.86" stroke="black" stroke-width="0.5" stroke-miterlimit="10" stroke-linecap="round" stroke-linejoin="round"/>
<path d="M347.123 51.8255C347.123 51.8255 361.852 49.9182 369.743 64.5846" stroke="black" stroke-width="2" stroke-miterlimit="10" stroke-linecap="round" stroke-linejoin="round"/>
<path d="M365.995 67.2813L372.439 68.2678L373.425 61.8225C372.767 62.2171 365.995 67.2813 365.995 67.2813Z" fill="black" stroke="black" stroke-miterlimit="10" stroke-linecap="round" stroke-linejoin="round"/>
<path d="M336.931 140.942C336.931 140.942 322.201 142.85 314.311 128.183" stroke="black" stroke-width="2" stroke-miterlimit="10" stroke-linecap="round" stroke-linejoin="round"/>
<path d="M318.585 126.407L312.272 124.763L310.628 131.077C311.352 130.814 318.585 126.407 318.585 126.407Z" fill="black" stroke="black" stroke-miterlimit="10" stroke-linecap="round" stroke-linejoin="round"/>
<path d="M360.142 137.456C360.142 137.456 340.416 132.261 349.556 114.306C358.696 96.2853 370.006 106.151 370.006 106.151C370.006 106.151 358.893 81.1585 386.313 76.752C413.667 72.4113 409.985 99.508 409.985 99.508C409.985 99.508 423.07 89.1823 430.435 99.508C437.799 109.834 434.117 114.043 434.117 114.043C434.117 114.043 446.479 108.65 451.345 114.766C456.277 120.949 458.973 130.288 451.345 134.497C443.717 138.64 360.142 137.456 360.142 137.456Z" fill="white" stroke="black" stroke-miterlimit="10" stroke-linecap="round" stroke-linejoin="round"/>
<path d="M400.056 124.632V104.901" stroke="black" stroke-width="2" stroke-miterlimit="10" stroke-linecap="round" stroke-linejoin="round"/>
<path d="M399.727 125.947L408.473 117.66" stroke="black" stroke-width="2" stroke-miterlimit="10" stroke-linecap="round" stroke-linejoin="round"/>
<path d="M399.727 125.947L390.981 117.66" stroke="black" stroke-width="2" stroke-miterlimit="10" stroke-linecap="round" stroke-linejoin="round"/>
<path d="M287.614 74.3185H332.525L336.931 42.4866H290.31L287.614 74.3185Z" fill="#E0E0E0" stroke="black" stroke-miterlimit="10" stroke-linecap="round" stroke-linejoin="round"/>
<path d="M327.199 32.2925H284.984V71.2274H327.199V32.2925Z" fill="white" stroke="black" stroke-miterlimit="10" stroke-linecap="round" stroke-linejoin="round"/>
<path d="M330.24 33.519L288.097 31.0247L285.797 69.8937L327.941 72.3876L330.24 33.519Z" fill="white" stroke="black" stroke-miterlimit="10" stroke-linecap="round" stroke-linejoin="round"/>
<path d="M334.567 34.356L292.55 30.2732L288.786 69.0255L330.802 73.1078L334.567 34.356Z" fill="white" stroke="black" stroke-miterlimit="10" stroke-linecap="round" stroke-linejoin="round"/>
<path d="M332.525 74.3185H286.167L283.208 40.7765H329.763L332.525 74.3185Z" fill="#E5E5E5" stroke="black" stroke-miterlimit="10" stroke-linecap="round" stroke-linejoin="round"/>
<path d="M307.275 53.9961L308.327 66.0317" stroke="black" stroke-width="2" stroke-miterlimit="10" stroke-linecap="round" stroke-linejoin="round"/>
<path d="M307.407 53.2068L302.475 58.7313" stroke="black" stroke-width="2" stroke-miterlimit="10" stroke-linecap="round" stroke-linejoin="round"/>
<path d="M307.406 53.2068L313.193 57.7448" stroke="black" stroke-width="2" stroke-miterlimit="10" stroke-linecap="round" stroke-linejoin="round"/>
<path d="M300.502 95.9564V141.008H260.194V89.84H293.729" fill="white"/>
<path d="M300.502 95.9564V141.008H260.194V89.84H293.729" stroke="black" stroke-miterlimit="10" stroke-linecap="round" stroke-linejoin="round"/>
<path d="M300.502 95.9564L293.729 89.84V95.9564H300.502Z" fill="#F4F4F5" stroke="black" stroke-miterlimit="10" stroke-linecap="round" stroke-linejoin="round"/>
<path d="M265.718 109.242C266.309 108.321 266.441 107.137 265.981 106.15C264.665 107.466 264.139 109.57 264.665 111.346C265.652 110.952 266.507 110.162 267.033 109.242C267.493 109.636 267.756 110.162 267.69 110.754C268.348 110.36 269.005 109.899 269.597 109.307C270.057 109.768 270.452 110.294 270.912 110.754C271.109 110.491 271.372 110.294 271.57 110.031C272.227 111.083 273.477 111.872 274.66 111.609C275.844 111.346 276.633 109.702 275.844 108.715C275.055 108.452 274.2 109.242 274.266 110.097C274.331 110.952 275.186 111.544 275.975 111.478C276.764 111.412 277.488 110.82 277.751 110.031C277.882 110.623 278.277 111.215 278.737 111.609C279.197 111.215 279.658 110.82 280.118 110.425C280.447 111.543 282.354 111.675 282.88 110.623C282.88 111.215 283.603 111.609 284.195 111.412C284.787 111.28 285.181 110.82 285.576 110.36C286.365 111.215 287.943 111.28 288.732 110.36C288.863 110.228 288.929 110.097 288.929 109.965C288.929 109.768 288.666 109.636 288.469 109.636C287.811 109.439 286.957 109.636 286.628 110.228C286.233 111.149 287.417 112.135 288.403 111.872C289.389 111.609 289.916 110.557 290.179 109.636C290.639 107.926 290.507 106.15 289.784 104.506C289.455 103.783 288.863 103.059 288.074 103.191C287.483 104.177 287.088 105.23 286.891 106.348" stroke="black" stroke-miterlimit="10" stroke-linecap="round" stroke-linejoin="round"/>
<path d="M266.375 119.501C266.572 119.041 266.77 118.646 266.704 118.12C266.638 117.659 266.178 117.199 265.718 117.331C265.455 117.396 265.323 117.594 265.126 117.791C264.468 118.646 263.876 119.632 263.548 120.619C263.416 121.014 263.285 121.474 263.482 121.803C263.876 122.526 265.06 122.132 265.783 121.803C266.572 121.474 267.888 121.671 267.756 122.461C268.348 121.934 268.94 121.408 269.531 120.948C269.992 121.474 270.386 122.132 270.584 122.789C271.307 122.263 272.03 121.671 272.753 121.145C272.753 121.934 273.411 122.658 274.2 122.724C274.989 122.789 275.778 122.132 275.91 121.408C275.515 122.263 276.633 123.118 277.488 122.921C278.408 122.724 279 121.869 279.526 121.145C278.869 120.422 277.422 121.342 277.619 122.263C277.817 123.25 279.066 123.71 279.987 123.25C280.907 122.789 281.302 121.737 281.367 120.751C280.907 121.277 280.776 122.132 281.17 122.789C282.156 122.724 283.077 122.461 283.998 122.066C283.735 122.592 284.063 123.25 284.655 123.447C285.181 123.644 285.773 123.579 286.365 123.447C287.548 123.25 288.864 122.987 289.587 122C290.705 122.658 291.231 124.039 291.165 125.354C291.099 126.67 290.507 127.854 289.784 128.906C289.127 129.892 287.746 130.747 286.957 129.892C286.759 129.629 286.694 129.366 286.628 129.037C285.839 124.894 288.272 120.356 292.086 118.646C292.349 118.514 292.677 118.449 292.875 118.58C293.138 118.712 293.072 119.172 292.809 119.172" stroke="black" stroke-miterlimit="10" stroke-linecap="round" stroke-linejoin="round"/>
<path d="M266.967 131.669C266.967 131.077 266.967 130.485 266.967 129.893C266.441 129.564 265.652 129.959 265.389 130.551C265.126 131.143 265.192 131.8 265.323 132.458C265.323 132.655 265.389 132.853 265.586 132.918C265.718 132.984 265.915 132.984 266.046 132.918C266.901 132.59 267.69 132.063 268.282 131.34C268.414 131.208 268.545 131.011 268.742 131.011C269.137 131.011 269.268 131.537 269.466 131.866C269.794 132.392 270.649 132.458 271.241 132.129C271.833 131.8 272.162 131.208 272.49 130.682C272.49 131.471 273.082 132.195 273.871 132.392C274.66 132.59 275.515 132.129 275.844 131.406C276.501 132.195 277.751 132.392 278.606 131.8C279 131.537 279.46 131.011 279.921 131.143C280.25 131.208 280.513 131.537 280.841 131.603C281.499 131.735 282.025 130.814 282.617 131.077C283.011 131.274 283.077 131.8 283.406 132.063C284.063 132.59 285.05 131.537 285.839 131.932C286.036 132.063 286.168 132.195 286.365 132.392C287.285 133.116 288.6 132.261 289.455 131.471" stroke="black" stroke-miterlimit="10" stroke-linecap="round" stroke-linejoin="round"/>
<path d="M292.217 92.7338L297.083 137.522L257.038 141.929L251.449 91.0239L284.787 87.3408" fill="white"/>
<path d="M292.217 92.7338L297.083 137.522L257.038 141.929L251.449 91.0239L284.787 87.3408" stroke="black" stroke-miterlimit="10" stroke-linecap="round" stroke-linejoin="round"/>
<path d="M292.217 92.7338L284.787 87.3408L285.444 93.4573L292.217 92.7338Z" fill="#F4F4F5" stroke="black" stroke-miterlimit="10" stroke-linecap="round" stroke-linejoin="round"/>
<path d="M259.076 109.702C259.602 108.716 259.536 107.532 259.01 106.611C257.827 108.058 257.564 110.162 258.287 111.872C259.208 111.346 259.997 110.491 260.391 109.505C260.852 109.834 261.18 110.36 261.246 110.952C261.904 110.491 262.43 109.899 262.956 109.307C263.416 109.768 263.942 110.162 264.402 110.623C264.6 110.36 264.797 110.097 264.994 109.834C265.717 110.82 267.098 111.478 268.216 111.017C269.4 110.623 269.926 108.913 269.071 108.058C268.282 107.926 267.493 108.781 267.624 109.571C267.756 110.36 268.676 110.886 269.466 110.754C270.255 110.623 270.912 109.899 271.109 109.11C271.307 109.702 271.701 110.228 272.227 110.557C272.622 110.097 273.082 109.702 273.477 109.242C273.937 110.36 275.844 110.228 276.238 109.11C276.304 109.702 277.093 109.965 277.619 109.768C278.145 109.571 278.54 109.044 278.869 108.518C279.723 109.307 281.301 109.176 282.025 108.189C282.091 108.058 282.222 107.926 282.156 107.795C282.091 107.597 281.893 107.532 281.696 107.466C280.973 107.334 280.184 107.597 279.921 108.255C279.592 109.176 280.907 110.031 281.828 109.636C282.748 109.242 283.208 108.189 283.34 107.203C283.603 105.493 283.274 103.651 282.354 102.204C281.959 101.547 281.236 100.889 280.512 101.086C280.052 102.073 279.723 103.191 279.658 104.309" stroke="black" stroke-miterlimit="10" stroke-linecap="round" stroke-linejoin="round"/>
<path d="M260.786 119.83C260.917 119.37 261.115 118.91 260.983 118.449C260.852 117.989 260.391 117.594 259.931 117.792C259.734 117.857 259.536 118.12 259.405 118.318C258.813 119.238 258.353 120.225 258.156 121.343C258.09 121.738 258.024 122.198 258.221 122.527C258.747 123.25 259.799 122.724 260.523 122.264C261.246 121.803 262.627 121.869 262.561 122.724C263.087 122.132 263.613 121.606 264.139 121.014C264.665 121.475 265.126 122.067 265.389 122.724C266.046 122.067 266.704 121.475 267.361 120.817C267.427 121.606 268.216 122.264 269.005 122.264C269.794 122.264 270.518 121.54 270.518 120.751C270.189 121.606 271.438 122.395 272.293 122.067C273.148 121.738 273.674 120.883 274.068 120.028C273.345 119.37 272.03 120.422 272.293 121.343C272.556 122.264 273.937 122.593 274.726 122.067C275.581 121.54 275.91 120.422 275.778 119.436C275.384 120.028 275.384 120.883 275.778 121.475C276.699 121.277 277.619 120.948 278.474 120.488C278.211 121.014 278.671 121.672 279.263 121.803C279.789 121.935 280.381 121.803 280.973 121.672C282.156 121.343 283.406 120.883 283.997 119.896C285.181 120.488 285.839 121.738 285.904 123.053C285.97 124.368 285.51 125.618 284.918 126.736C284.392 127.788 283.077 128.841 282.222 127.986C282.025 127.788 281.893 127.46 281.828 127.196C280.644 123.119 282.485 118.383 286.167 116.279C286.43 116.147 286.693 116.016 286.956 116.082C287.219 116.213 287.219 116.673 286.956 116.673" stroke="black" stroke-miterlimit="10" stroke-linecap="round" stroke-linejoin="round"/>
<path d="M262.759 131.932C262.693 131.34 262.627 130.748 262.561 130.156C261.97 129.893 261.246 130.353 261.049 130.945C260.852 131.537 260.983 132.195 261.181 132.853C261.246 133.05 261.312 133.247 261.444 133.313C261.575 133.379 261.772 133.313 261.904 133.247C262.759 132.853 263.482 132.195 264.008 131.406C264.139 131.208 264.271 131.011 264.468 131.011C264.863 130.945 265.06 131.471 265.257 131.735C265.652 132.261 266.507 132.195 267.033 131.8C267.559 131.406 267.888 130.814 268.151 130.222C268.216 131.011 268.94 131.669 269.729 131.735C270.518 131.8 271.307 131.34 271.57 130.551C272.293 131.274 273.543 131.34 274.332 130.682C274.726 130.353 275.055 129.827 275.581 129.893C275.91 129.959 276.173 130.222 276.567 130.288C277.225 130.353 277.685 129.367 278.277 129.564C278.671 129.696 278.803 130.288 279.132 130.485C279.855 130.945 280.71 129.762 281.499 130.09C281.696 130.156 281.893 130.353 282.025 130.485C283.011 131.143 284.261 130.09 284.984 129.235" stroke="black" stroke-miterlimit="10" stroke-linecap="round" stroke-linejoin="round"/>
</g>
<defs>
<clipPath id="clip0_305_258">
<rect width="457" height="415" fill="white"/>
</clipPath>
</defs>
</svg>
