<svg width="205" height="159" viewBox="0 0 205 159" fill="none" xmlns="http://www.w3.org/2000/svg">
<g clip-path="url(#clip0_309_371)">
<path d="M51.9229 89.2064H1.56192C1.24718 89.206 0.945426 89.0842 0.722869 88.8675C0.500312 88.6509 0.375121 88.3572 0.374756 88.0508V29.3503C0.375121 29.0439 0.500312 28.7502 0.722869 28.5336C0.945426 28.317 1.24718 28.1951 1.56192 28.1948H51.9229C52.2377 28.1951 52.5394 28.317 52.762 28.5336C52.9845 28.7502 53.1097 29.0439 53.1101 29.3503V88.0508C53.1097 88.3572 52.9845 88.6509 52.762 88.8675C52.5394 89.0842 52.2377 89.206 51.9229 89.2064ZM1.56192 28.657C1.37307 28.6572 1.19201 28.7303 1.05848 28.8603C0.924943 28.9902 0.849832 29.1665 0.849621 29.3503V88.0508C0.849832 88.2347 0.924943 88.4109 1.05848 88.5409C1.19201 88.6708 1.37307 88.744 1.56192 88.7442H51.9229C52.1118 88.744 52.2928 88.6709 52.4264 88.5409C52.5599 88.4109 52.635 88.2347 52.6352 88.0508V29.3503C52.635 29.1665 52.5599 28.9902 52.4264 28.8603C52.2928 28.7303 52.1118 28.6572 51.9229 28.657H1.56192Z" fill="#CACACA"/>
<path d="M45.1433 40.6744H8.34131V62.8605H45.1433V40.6744Z" fill="#6C63FF"/>
<path d="M17.6012 71.1802H8.34131V76.7267H17.6012V71.1802Z" fill="#E4E4E4"/>
<path d="M45.1434 71.1802H35.8835V76.7267H45.1434V71.1802Z" fill="#E4E4E4"/>
<path d="M31.3724 71.1802H22.1125V76.7267H31.3724V71.1802Z" fill="#E4E4E4"/>
<path d="M121.253 61.0116H70.8922C70.5775 61.0113 70.2757 60.8894 70.0532 60.6728C69.8306 60.4562 69.7054 60.1625 69.7051 59.8561V1.15552C69.7054 0.849167 69.8306 0.555459 70.0532 0.338832C70.2757 0.122205 70.5775 0.000350482 70.8922 0H121.253C121.568 0.000350482 121.87 0.122205 122.092 0.338832C122.315 0.555459 122.44 0.849167 122.44 1.15552V59.8561C122.44 60.1625 122.315 60.4562 122.092 60.6728C121.87 60.8894 121.568 61.0113 121.253 61.0116ZM70.8922 0.462209C70.7034 0.46241 70.5223 0.53552 70.3888 0.665498C70.2553 0.795476 70.1801 0.971707 70.1799 1.15552V59.8561C70.1801 60.0399 70.2553 60.2161 70.3888 60.3461C70.5223 60.4761 70.7034 60.5492 70.8922 60.5494H121.253C121.442 60.5492 121.623 60.4761 121.757 60.3461C121.89 60.2161 121.965 60.0399 121.966 59.8561V1.15552C121.965 0.971707 121.89 0.795476 121.757 0.665498C121.623 0.53552 121.442 0.46241 121.253 0.462209H70.8922Z" fill="#CACACA"/>
<path d="M121.855 98.2194H71.4938C71.1791 98.2191 70.8773 98.0972 70.6548 97.8806C70.4322 97.664 70.307 97.3703 70.3066 97.0639V79.7311C70.307 79.4247 70.4322 79.131 70.6548 78.9144C70.8773 78.6978 71.1791 78.5759 71.4938 78.5756H121.855C122.169 78.5759 122.471 78.6978 122.694 78.9144C122.916 79.131 123.042 79.4247 123.042 79.7311V97.0639C123.042 97.3703 122.916 97.664 122.694 97.8806C122.471 98.0972 122.169 98.2191 121.855 98.2194ZM71.4938 79.0378C71.305 79.038 71.1239 79.1111 70.9904 79.2411C70.8568 79.371 70.7817 79.5473 70.7815 79.7311V97.0639C70.7817 97.2477 70.8568 97.424 70.9904 97.5539C71.1239 97.6839 71.305 97.757 71.4938 97.7572H121.855C122.044 97.757 122.225 97.6839 122.358 97.5539C122.492 97.424 122.567 97.2477 122.567 97.0639V79.7311C122.567 79.5473 122.492 79.371 122.358 79.2411C122.225 79.1111 122.044 79.038 121.855 79.0378H71.4938Z" fill="#CACACA"/>
<path d="M111.506 39.4033H80.6395C79.0659 39.4033 77.7903 40.6449 77.7903 42.1766V42.1766C77.7903 43.7082 79.0659 44.9498 80.6395 44.9498H111.506C113.079 44.9498 114.355 43.7082 114.355 42.1766C114.355 40.6449 113.079 39.4033 111.506 39.4033Z" fill="#E4E4E4"/>
<path d="M111.506 48.1853H80.6395C79.0659 48.1853 77.7903 49.4269 77.7903 50.9586V50.9586C77.7903 52.4902 79.0659 53.7318 80.6395 53.7318H111.506C113.079 53.7318 114.355 52.4902 114.355 50.9586C114.355 49.4269 113.079 48.1853 111.506 48.1853Z" fill="#E4E4E4"/>
<path d="M96.0726 33.1635C103.416 33.1635 109.369 27.3692 109.369 20.2216C109.369 13.0741 103.416 7.27979 96.0726 7.27979C88.7293 7.27979 82.7764 13.0741 82.7764 20.2216C82.7764 27.3692 88.7293 33.1635 96.0726 33.1635Z" fill="#6C63FF"/>
<path d="M111.039 85.6243H97.5052C95.9316 85.6243 94.656 86.8659 94.656 88.3975C94.656 89.9291 95.9316 91.1708 97.5052 91.1708H111.039C112.612 91.1708 113.888 89.9291 113.888 88.3975C113.888 86.8659 112.612 85.6243 111.039 85.6243Z" fill="#E4E4E4"/>
<path d="M84.684 93.4819C87.5688 93.4819 89.9075 91.2055 89.9075 88.3975C89.9075 85.5896 87.5688 83.3132 84.684 83.3132C81.7991 83.3132 79.4604 85.5896 79.4604 88.3975C79.4604 91.2055 81.7991 93.4819 84.684 93.4819Z" fill="#6C63FF"/>
<path d="M204.388 159H113.926C113.863 159 113.803 158.976 113.758 158.932C113.714 158.889 113.689 158.83 113.689 158.769C113.689 158.708 113.714 158.649 113.758 158.605C113.803 158.562 113.863 158.538 113.926 158.538H204.388C204.451 158.538 204.511 158.562 204.556 158.605C204.601 158.649 204.626 158.708 204.626 158.769C204.626 158.83 204.601 158.889 204.556 158.932C204.511 158.976 204.451 159 204.388 159Z" fill="#CACACA"/>
<path d="M177.589 109.092C177.424 108.861 177.312 108.598 177.262 108.321C177.212 108.043 177.225 107.759 177.301 107.487C177.376 107.216 177.512 106.963 177.698 106.748C177.884 106.533 178.117 106.36 178.379 106.242L177.68 99.4346L180.914 101.087L181.082 107.298C181.257 107.74 181.259 108.229 181.088 108.673C180.917 109.117 180.585 109.484 180.154 109.705C179.724 109.926 179.225 109.986 178.752 109.873C178.279 109.76 177.866 109.482 177.589 109.092V109.092Z" fill="#FFB6B6"/>
<path d="M149.267 108.135C149.101 107.904 148.99 107.641 148.94 107.364C148.89 107.086 148.903 106.802 148.978 106.53C149.054 106.258 149.189 106.006 149.376 105.791C149.562 105.576 149.795 105.403 150.057 105.285L149.358 98.4775L152.592 100.13L152.76 106.341C152.935 106.783 152.937 107.272 152.766 107.716C152.595 108.159 152.263 108.527 151.832 108.748C151.402 108.969 150.903 109.029 150.43 108.916C149.957 108.803 149.543 108.525 149.267 108.135V108.135Z" fill="#FFB6B6"/>
<path d="M170.839 156.165H168.428L167.281 147.112H170.84L170.839 156.165Z" fill="#FFB6B6"/>
<path d="M171.454 158.44L163.679 158.44V158.344C163.679 157.563 163.998 156.814 164.566 156.262C165.133 155.709 165.903 155.399 166.705 155.399H166.706L171.454 155.399L171.454 158.44Z" fill="#2F2E41"/>
<path d="M152.941 156.165H150.53L149.383 147.112H152.941L152.941 156.165Z" fill="#FFB6B6"/>
<path d="M153.556 158.44L145.781 158.44V158.344C145.781 157.563 146.1 156.814 146.667 156.262C147.235 155.709 148.005 155.399 148.807 155.399H148.807L153.556 155.399L153.556 158.44Z" fill="#2F2E41"/>
<path d="M169.104 62.0374C172.189 60.3955 173.323 56.6296 171.637 53.626C169.95 50.6224 166.081 49.5185 162.995 51.1604C159.909 52.8023 158.775 56.5683 160.462 59.5719C162.149 62.5755 166.018 63.6793 169.104 62.0374Z" fill="#FFB8B8"/>
<path d="M151.994 104.918L150.814 106.737L148.454 154.118L153.371 153.927L163.205 113.915L167.138 154.309L171.465 154.501L174.976 107.526L151.994 104.918Z" fill="#2F2E41"/>
<path d="M177.759 69.1185L169.695 64.9068L160.648 64.3325L152.675 69.1185C152.675 69.1185 159.665 89.2197 151.994 100.898L150.814 106.449L175.203 108.172C175.203 108.172 173.629 83.2851 175.793 80.2221C177.956 77.159 177.759 69.1185 177.759 69.1185Z" fill="#3F3D56"/>
<path d="M174.976 70.1617L177.759 69.1185C177.759 69.1185 182.676 73.3302 182.48 83.4765C182.283 93.6229 181.221 104.918 181.221 104.918L177.563 105.492L175.596 89.0283L172.842 74.6703L174.976 70.1617Z" fill="#3F3D56"/>
<path d="M155.564 70.1617L152.781 69.1185C152.781 69.1185 147.864 73.3302 148.06 83.4765C148.257 93.6229 149.319 104.918 149.319 104.918L152.977 105.492L154.944 89.0283L157.698 74.6703L155.564 70.1617Z" fill="#3F3D56"/>
<path d="M170.652 50.346C170.095 49.8135 169.427 49.4029 168.693 49.1416C167.96 48.8802 167.178 48.7742 166.399 48.8305C165.028 48.9383 164.939 48.9706 163.708 49.5665C162.94 49.9198 162.195 50.3165 161.476 50.7546C161.469 50.47 160.255 49.3807 160.058 49.5916C159.861 49.8025 160.565 51.1727 160.408 51.4129C160.251 51.6531 158.83 50.7942 158.681 50.5488C159.779 52.0222 161.228 54.935 160.88 56.7231C161.12 56.4593 161.436 56.2707 161.786 56.1811C162.136 56.0915 162.506 56.1049 162.848 56.2197C163.191 56.3345 163.49 56.5455 163.71 56.826C163.929 57.1066 164.058 57.4441 164.08 57.7959C164.158 59.0185 162.993 60.3589 163.755 61.3343C164.19 61.8924 165.02 61.9388 165.74 61.9355L171.066 61.3575C172.211 59.5823 172.924 58.1743 173.236 56.1006C173.547 54.0269 172.18 51.8234 170.652 50.346Z" fill="#2F2E41"/>
</g>
<defs>
<clipPath id="clip0_309_371">
<rect width="204.251" height="159" fill="white" transform="translate(0.374756)"/>
</clipPath>
</defs>
</svg>
